<?xml version="1.0" encoding="utf-8"?>
<!-- Generator: Adobe Illustrator 28.2.0, SVG Export Plug-In . SVG Version: 6.00 Build 0)  -->
<svg version="1.1" id="Layer_1" xmlns="http://www.w3.org/2000/svg" xmlns:xlink="http://www.w3.org/1999/xlink" x="0px" y="0px"
	 viewBox="0 0 512 512" style="enable-background:new 0 0 512 512;" xml:space="preserve">
<style type="text/css">
	.st0{fill:#FFFFFF;}
	.st1{fill:#EA7600;}
	.st2{fill:#265787;}
</style>
<circle class="st0" cx="328.9" cy="286" r="123.1"/>
<path class="st1" d="M491.2,285.2c-2.8-19.5-9.5-38.1-20.1-55.1c-9.2-14.8-21.1-28-35.2-39.2l0,0L287.6,77c-0.1-0.1-0.2-0.2-0.3-0.3
	c-4.9-3.8-11.6-5.9-18.8-5.9c-7.2,0-14.1,2.1-19.5,5.9c-5.8,4.1-9.1,9.4-9.3,15.2c-0.2,5.3,2.3,10.5,7.2,14.5
	c9.6,7.5,19.1,15.2,28.6,22.9c9.2,7.5,18.8,15.2,28.3,22.7L122,151.8c-20.8,0-34.9,9.8-37.8,26.1c-1.3,7.2,1,15,6,21
	c5.4,6.4,13.1,9.9,21.9,9.9h13.8c19.1,0,38.4,0,57.5-0.1l18.3,0l-164.9,122l-0.7,0.5c-9.2,7.1-15.2,17-16.5,27.1
	c-1,7.7,0.8,14.8,5.2,20.4c5.2,6.7,13.4,10.4,23,10.4c9.5,0,19.1-3.6,27.2-10.1l89-72.9c-0.4,3.6-0.8,8.8-0.8,12.6
	c0.1,6,2,18,5.1,27.8c6.3,20.1,16.9,38.5,31.6,54.6c15.2,16.8,33.8,30.1,55.1,39.6c22.6,10,46.8,15,72.1,15h0.2
	c25.3-0.1,49.7-5.2,72.3-15.3c21.4-9.6,39.9-22.9,55.1-39.7c14.6-16.2,25.2-34.6,31.5-54.7c3.1-9.9,5.1-20.2,5.9-30.6
	C493,305.5,492.6,295.3,491.2,285.2z M329,381.5c-55.7,0-100.8-40.4-100.8-90.2c0-49.8,45.2-90.2,100.8-90.2s100.9,40.4,100.9,90.2
	C429.8,341.1,384.7,381.5,329,381.5z"/>
<path class="st2" d="M371.6,322.3c-34.6,34.5-102.7,13.3-100.9-38.9c1.9-29.9,28.6-50.6,58.2-50.5
	C377.2,232.4,407.4,286.3,371.6,322.3z"/>
</svg>
