<?xml version="1.0" encoding="UTF-8"?>
<svg id="a" data-name="Layer 1" xmlns="http://www.w3.org/2000/svg" xmlns:xlink="http://www.w3.org/1999/xlink" viewBox="0 0 500 398.94">
  <defs>
    <style>
      .e {
        fill: url(#b);
      }

      .e, .f {
        stroke-width: 0px;
      }

      .f {
        fill: #fdfcff;
        filter: url(#c);
      }
    </style>
    <linearGradient id="b" x1="38.47" y1="61.92" x2="462.15" y2="337.06" gradientUnits="userSpaceOnUse">
      <stop offset="0" stop-color="#8b13fc"/>
      <stop offset="1" stop-color="#6b10f3"/>
    </linearGradient>
    <filter id="c" data-name="drop-shadow-1" filterUnits="userSpaceOnUse">
      <feOffset dx="7" dy="7"/>
      <feGaussianBlur result="d" stdDeviation="8"/>
      <feFlood flood-color="#000" flood-opacity=".1"/>
      <feComposite in2="d" operator="in"/>
      <feComposite in="SourceGraphic"/>
    </filter>
  </defs>
  <path class="e" d="M0,211.97C0,203.64,0,195.3,0,186.97c49.08-5.85,53.54-69.11,55.82-108.32.74-20.02-3.61-42.3,10.41-58.91C75.05,7.76,87.78,1.98,102.34.25c100.1.75,200.5-1.46,300.47.79,11.94,1.64,21.8,7.14,29.62,16.22,21.7,25.13,6.94,38.37,14.68,90.75,4.65,31.41,15.06,75.43,52.89,78.96v25c-37.84,4.21-48.48,47.49-52.89,79.25-5.46,39.31,4.25,63.65-10.67,85.4-7.88,11.49-18.4,18.9-32.25,21.29-100.82,2.21-202.06.04-303.02.78-22.74-2.71-39.45-17.49-44.38-39.85C53.42,313.18,61.72,220.58,0,211.97Z"/>
  <path class="f" d="M326,214.96c-9.32-13.94-26.68-20.43-39.99-21.89,12.8-3,26.77-10.15,33.99-27,11.49-26.81-.96-45.52-8.11-53.88-8.61-10.08-26.61-19.17-44.88-19.17h-93.78v212.86h92.32c20.36,0,51.13-8.71,62.45-30.8,5.69-11.11,14.47-35.48-2-60.12ZM208.02,120.96s36.66-.02,48.88,0c4.1,0,18.04,2.08,25.19,9.28,10.78,10.84,10.34,31.23,0,41.32-8.62,8.4-23.49,11.51-32.68,11.51h-41.39v-62.11ZM292.55,265.17c-8.87,10.07-25.4,12.82-35.82,12.82h-48.72v-68.55s38.13.03,50.84,0c4.98,0,22.77,2.01,31.85,10.63,11.78,11.17,12.64,32.87,1.85,45.1Z"/>
</svg>