<?xml version="1.0" encoding="UTF-8"?>
<svg id="a" data-name="Layer 1" xmlns="http://www.w3.org/2000/svg" viewBox="0 0 397.71 449.2">
  <defs>
    <style>
      .b {
        fill: #004482;
      }

      .b, .c, .d, .e {
        stroke-width: 0px;
      }

      .c {
        fill: #fff;
      }

      .d {
        fill: #659ad2;
      }

      .e {
        fill: #00599c;
      }
    </style>
  </defs>
  <path class="d" d="M0,128.52v192.16c0,11.59,6.18,22.3,16.22,28.09l166.42,96.08c10.04,5.79,22.4,5.79,32.44,0l166.42-96.08c10.04-5.79,16.22-16.5,16.22-28.09v-192.16c0-11.59-6.18-22.3-16.22-28.09L215.07,4.35c-10.04-5.79-22.4-5.79-32.44,0L16.22,100.43C6.18,106.22,0,116.93,0,128.52Z"/>
  <path class="b" d="M397.7,128.52v192.16c0,11.59-6.18,22.3-16.21,28.09l-166.42,96.08c-10.04,5.8-22.4,5.8-32.44,0L16.21,348.77c-5.41-3.12-9.69-7.67-12.5-13.02L392.97,111.65c3.04,5,4.73,10.81,4.73,16.87Z"/>
  <path class="c" d="M199.81,75.67c-81.59,0-147.74,66.14-147.74,147.74s66.15,147.74,147.74,147.74,147.75-66.14,147.75-147.74-66.15-147.74-147.75-147.74ZM199.55,297.28c-40.65,0-73.61-32.96-73.61-73.61s32.96-73.61,73.61-73.61,73.61,32.96,73.61,73.61-32.95,73.61-73.61,73.61Z"/>
  <path class="e" d="M397.7,128.52v192.16c0,5.35-1.32,10.5-3.71,15.07l-195.14-112.34,194.12-111.76c3.04,5,4.73,10.81,4.73,16.87Z"/>
</svg>