<?xml version="1.0" encoding="utf-8"?>
<!-- Generator: Adobe Illustrator 28.2.0, SVG Export Plug-In . SVG Version: 6.00 Build 0)  -->
<svg version="1.1" id="a" xmlns="http://www.w3.org/2000/svg" xmlns:xlink="http://www.w3.org/1999/xlink" x="0px" y="0px"
	 viewBox="0 0 397.7 449.2" style="enable-background:new 0 0 397.7 449.2;" xml:space="preserve">
<style type="text/css">
	.st0{fill:#A179DC;}
	.st1{fill:#280068;}
	.st2{fill:#FFFFFF;}
	.st3{fill:#390091;}
</style>
<g>
	<path class="st0" d="M0,128.5v192.2c0,11.6,6.2,22.3,16.2,28.1l166.4,96.1c10,5.8,22.4,5.8,32.4,0l166.4-96.1
		c10-5.8,16.2-16.5,16.2-28.1V128.5c0-11.6-6.2-22.3-16.2-28.1L215.1,4.3c-10-5.8-22.4-5.8-32.4,0L16.2,100.4
		C6.2,106.2,0,116.9,0,128.5z"/>
	<path class="st1" d="M397.7,128.5v192.2c0,11.6-6.2,22.3-16.2,28.1l-166.4,96.1c-10,5.8-22.4,5.8-32.4,0L16.2,348.8
		c-5.4-3.1-9.7-7.7-12.5-13L393,111.7C396,116.7,397.7,122.5,397.7,128.5z"/>
	<path class="st2" d="M199.8,75.7c-81.6,0-147.7,66.1-147.7,147.7s66.2,147.7,147.7,147.7S347.6,305,347.6,223.4
		S281.4,75.7,199.8,75.7L199.8,75.7z M199.6,297.3c-40.7,0-73.6-33-73.6-73.6s33-73.6,73.6-73.6s73.6,33,73.6,73.6
		S240.2,297.3,199.6,297.3z"/>
	<path class="st3" d="M397.7,128.5v192.2c0,5.4-1.3,10.5-3.7,15.1L198.9,223.4L393,111.7C396,116.7,397.7,122.5,397.7,128.5
		L397.7,128.5z"/>
</g>
<path class="st2" d="M366,213v-10.8h-20.9v-20.9h-10.8v20.9h-20.7v-20.9h-10.8v20.9H282V213h20.9v20.7H282v10.8h20.9v20.9h10.8
	v-20.9h20.7v20.9h10.8v-20.9H366v-10.8h-20.9V213H366z M334.4,233.7h-20.7V213h20.7V233.7z"/>
</svg>
