<?xml version="1.0" encoding="UTF-8"?>
<svg id="a" data-name="Layer 1" xmlns="http://www.w3.org/2000/svg" viewBox="0 0 421.11 477.38">
  <defs>
    <style>
      .b {
        fill: #ececec;
      }

      .b, .c, .d, .e {
        stroke-width: 0px;
      }

      .c {
        fill: #fff;
      }

      .d {
        fill: #2465f1;
      }

      .e {
        fill: #214ce5;
      }
    </style>
  </defs>
  <polygon class="e" points="0 0 421.11 0 382.83 429.53 210.55 477.38 38.29 429.53 0 0"/>
  <polygon class="d" points="210.55 35.2 382.67 35.2 349.77 402.06 210.55 440.98 210.55 35.2"/>
  <polygon class="b" points="342.45 87.39 318.14 356.55 210.56 386.43 210.54 386.43 101.75 356.21 94.46 273.39 148.18 273.39 151.95 315.14 210.54 331.41 210.56 331.41 269.22 315.13 275.35 247.12 92.14 247.12 87.5 194.5 280.09 194.5 284.94 140.67 82.75 140.67 78.05 87.39 342.45 87.39"/>
  <polygon class="c" points="342.45 87.39 318.14 356.55 210.56 386.43 210.55 386.43 210.55 331.41 210.56 331.41 269.22 315.13 275.35 247.12 210.55 247.12 210.55 194.5 280.09 194.5 284.94 140.67 210.55 140.67 210.55 87.39 342.45 87.39"/>
</svg>