<?xml version="1.0" encoding="UTF-8"?>
<svg id="a" data-name="Layer 1" xmlns="http://www.w3.org/2000/svg" viewBox="0 0 481.04 481.89">
  <defs>
    <style>
      .b {
        fill: #095087;
      }

      .b, .c, .d, .e, .f, .g {
        stroke-width: 0px;
      }

      .c {
        fill: #2bb7f6;
      }

      .d {
        fill: #41c4ff;
      }

      .e {
        fill: #357aaf;
      }

      .f {
        fill: #03589c;
      }

      .g {
        fill: #02589b;
      }
    </style>
  </defs>
  <path class="g" d="M114.2,400.25L15.15,301.2c-15.55-15.55-19.57-39.22-10.02-59.03L81.91,82.9l32.29,317.35Z"/>
  <path class="d" d="M395.44,348.9v132.99h-199.96l-100.37-100.37c-8.46-8.46-13.21-19.93-13.21-31.89V82.89l313.54,266.01Z"/>
  <path class="d" d="M393.08,112.33l-311.17-29.43L235.25,5.63c20.29-10.22,44.85-6.28,60.92,9.79l96.91,96.91Z"/>
  <path class="c" d="M395.44,396.43H110.02l-7.93-7.93c-11.06-11.06-17.28-26.07-17.28-41.71V85.8l199.24,122.5,111.38,188.13Z"/>
  <polygon class="b" points="481.04 200.26 481.04 396.43 395.44 396.43 382.03 383.02 474.17 193.39 481.04 200.26"/>
  <path class="e" d="M380.46,99.68H98.69l-16.73-16.73v-.04h261.05c13.24,0,25.95,5.26,35.31,14.63l2.14,2.14Z"/>
  <path class="f" d="M477.75,196.97v196.2h-85.57L84.81,85.8v-.04h261.36c13.05,0,25.56,5.18,34.79,14.41l96.8,96.8Z"/>
</svg>