<?xml version="1.0" encoding="UTF-8"?>
<svg id="a" data-name="Layer 1" xmlns="http://www.w3.org/2000/svg" viewBox="0 0 2560 1536">
  <defs>
    <style>
      .b {
        fill: #fff;
      }

      .b, .c, .d {
        stroke-width: 0px;
      }

      .c {
        fill: #c8102e;
      }

      .d {
        fill: #012169;
      }
    </style>
  </defs>
  <rect class="d" x="0" y="0" width="2560" height="1536"/>
  <g>
    <polygon class="b" points="1360.1 636.17 1281.94 766.4 1280.05 769.56 1201.61 900.27 1201.47 900.49 1126.13 855.27 980.29 767.75 724.89 614.47 0 179.43 0 0 300.08 0 1126.13 495.75 1279.78 587.96 1323.94 614.47 1359.87 636.03 1360.1 636.17"/>
    <polygon class="b" points="2560 0 2560 179.16 1834.66 614.47 1579.56 767.57 1433.19 855.41 1361.27 898.58 1358.48 900.25 1280.05 769.56 1279.89 769.3 1199.87 635.96 1199.85 635.93 1235.61 614.47 1279.78 587.96 1433.19 495.89 2259.47 0 2560 0"/>
    <polygon class="b" points="2560 1355.99 2560 1536 2260.89 1536 1433.19 1039.25 1280.07 947.36 1237.04 921.53 1201.61 900.27 1201.38 900.13 1279.89 769.31 1279.89 769.3 1281.79 766.14 1359.87 636.03 1359.88 636.03 1360.01 635.81 1433.19 679.73 1579.56 767.57 1836.09 921.53 2560 1355.99"/>
    <polygon class="b" points="1361.29 898.61 1280.07 947.36 299.24 1536 0 1536 0 1356.07 980.29 767.75 1199.87 635.96 1202.66 634.29 1281.79 766.14 1281.94 766.4 1361.27 898.58 1361.29 898.61"/>
  </g>
  <g>
    <polygon class="c" points="1281.01 767.95 1280.69 768.48 1227.97 856.34 1179.65 827.34 0 119.37 0 0 1.41 0 1277.99 766.14 1279.81 767.23 1280.63 767.72 1280.79 767.82 1281.01 767.95"/>
    <polygon class="c" points="2559.85 0 1380.18 707.98 1282.18 766.79 1280.97 767.52 1280.63 767.72 1279.39 768.47 1278.96 767.75 1277.99 766.14 1226.35 680.08 2359.54 0 2559.85 0"/>
    <polygon class="c" points="2560 1416.04 2560 1536 2559.57 1536 1280.47 768.35 1333.51 679.97 2560 1416.04"/>
    <polygon class="c" points="1334.79 854.46 199.17 1536 0 1536 0 1535.32 1179.65 827.34 1278.96 767.75 1279.81 767.23 1281.75 766.07 1281.79 766.14 1282.18 766.79 1284.61 770.83 1334.79 854.46"/>
  </g>
  <g>
    <rect class="b" x="1023.32" y="0" width="512.68" height="1536"/>
    <rect class="b" x="1023.32" y="-511.66" width="512.68" height="2559.32" transform="translate(511.66 2047.66) rotate(-90)"/>
  </g>
  <g>
    <rect class="c" x="1126.13" y="0" width="307.06" height="1536"/>
    <rect class="c" x="1126.13" y="-511.66" width="307.06" height="2559.32" transform="translate(511.66 2047.66) rotate(-90)"/>
  </g>
</svg>