<?xml version="1.0" encoding="UTF-8"?>
<svg id="a" xmlns="http://www.w3.org/2000/svg" viewBox="0 0 471 471">
  <defs>
    <style>
      .b {
        fill: #ff3034;
        isolation: isolate;
      }

      .b, .c {
        stroke-width: 0px;
      }

      .d {
        fill: none;
        stroke: #fff;
        stroke-linecap: round;
        stroke-miterlimit: 10;
        stroke-width: 16px;
      }

      .c {
        fill: #fff;
      }
    </style>
  </defs>
  <rect class="b" width="471" height="471" rx="69.53" ry="69.53"/>
  <path class="d" d="M366.08,361.29c-32.67,32.25-77.55,52.16-127.1,52.16-99.93,0-180.93-81-180.93-180.93,0-49.69,20.03-94.7,52.46-127.4"/>
  <g>
    <path class="c" d="M395.34,232.52c0,5.94-.33,11.8-.97,17.57-3.54,1.15-7.07,2.3-10.6,3.44-8.72-23.74-28.57-67.91-71.75-108-36.24-33.64-73.56-50.15-96.34-58.21,1.62-3.73,3.24-7.47,4.85-11.2,5.73-.64,11.55-.96,17.45-.96,86.91,0,157.36,70.45,157.36,157.36Z"/>
    <path class="c" d="M376.69,306.89c-6.8,12.66-15.29,24.28-25.16,34.56h-25.21c-.12-12.42-2.23-93.98-69.7-151.07-52.62-44.52-112.11-46.35-128.85-46.29v-23.88c10.72-10.53,22.94-19.53,36.32-26.65,28.44,4.77,88.09,19.93,140.02,71.63,51.76,51.53,67.5,111.12,72.58,141.7Z"/>
    <path class="c" d="M305.38,374.74c-9.14,4.35-18.77,7.83-28.78,10.36-8.51-2.92-17.01-5.84-25.51-8.76,1.96-8.15,14.87-64.91-21.2-111.4-24.11-31.09-55.4-47.09-89.63-49.88-11.29-.92-13.48,15.67-2.34,17.76,47.14,8.87,69.27,24.68,88.57,59.69,22.26,40.38,5.51,83.82.12,96.95-.31.75-.58,1.4-.8,1.94-10.16-1.36-20.31-2.72-30.47-4.08-2.73-1.95-5.47-3.9-8.2-5.85-3.79-2.7-7.58-5.41-11.37-8.11,12.42-17.96,10.63-53.45-2.13-66.21-12.98-12.98-27.2-21.42-45.87-23.38-4.87-.51-9.86-2.13-14.91-4.6-17.8-8.72-28.05-22.67-31.99-37.91h0c-3.29-12.74-2.19-26.37,2.6-38.61,0-.02,0-.03.01-.05,9.4-24.03,32.96-42.69,65.19-38.64,42.16,5.3,81.27,24.32,111.52,56.64,58.07,62.02,48.66,133.26,45.19,154.14Z"/>
    <circle class="c" cx="140.23" cy="332" r="24.36"/>
  </g>
</svg>