<?xml version="1.0" encoding="UTF-8"?>
<svg id="Layer_1" data-name="Layer 1" xmlns="http://www.w3.org/2000/svg" viewBox="0 0 484.27 346.8">
  <defs>
    <style>
      .cls-1 {
        fill: #fdfff7;
      }

      .cls-1, .cls-2, .cls-3, .cls-4, .cls-5, .cls-6 {
        stroke-width: 0px;
      }

      .cls-7 {
        letter-spacing: .09em;
      }

      .cls-7, .cls-4 {
        fill: #e03e13;
      }

      .cls-7, .cls-8 {
        font-family: FranklinGothic-Heavy, 'Franklin Gothic Heavy';
        font-size: 74px;
        font-weight: 800;
      }

      .cls-2 {
        fill: #3795d2;
      }

      .cls-3 {
        fill: #fff;
      }

      .cls-8 {
        letter-spacing: .52em;
      }

      .cls-8, .cls-5 {
        fill: #0774b9;
      }

      .cls-6 {
        fill: #ef813c;
      }
    </style>
  </defs>
  <g>
    <polygon class="cls-4" points="0 81.52 231.32 81.52 221.11 301.86 116.17 346.8 10.21 302.63 0 81.52"/>
    <polygon class="cls-6" points="115.66 105.77 208.11 105.77 198.89 286.03 115.66 321.01 115.66 105.77"/>
    <polygon class="cls-1" points="186.19 125.18 44.94 125.18 52.28 222.9 149.17 222.9 145.98 253.54 115.56 264.65 85.72 254.94 82.6 243.77 54.45 243.77 58.09 276.46 115.66 298.73 174.7 274.03 181.34 189.9 79.6 189.9 77.11 158.5 184.47 158.5 186.19 125.18"/>
    <text class="cls-7" transform="translate(0 61.68) scale(1.12 1)"><tspan x="0" y="0">HTML</tspan></text>
  </g>
  <g>
    <polygon class="cls-5" points="248.55 81.52 479.87 81.52 469.66 301.86 364.72 346.8 258.77 302.63 248.55 81.52"/>
    <polygon class="cls-2" points="364.21 105.77 456.66 105.77 447.45 286.03 364.21 321.01 364.21 105.77"/>
    <polygon class="cls-3" points="293.28 125.77 435.15 125.77 425.79 273.52 364.21 299.9 302.89 273.26 300.68 234.71 330.81 234.71 332.11 254.69 364.21 265.35 395.55 254.56 398.43 218.11 328.72 218.11 328.72 187.92 401.43 187.92 404.11 156.33 295.72 156.33 293.28 125.77"/>
    <text class="cls-8" transform="translate(246.38 62.42) scale(1.12 1)"><tspan x="0" y="0">CSS</tspan></text>
  </g>
</svg>