<?xml version="1.0" encoding="UTF-8"?>
<svg id="a" data-name="Layer 1" xmlns="http://www.w3.org/2000/svg" viewBox="0 0 421.11 477.38">
  <defs>
    <style>
      .b {
        fill: #f16529;
      }

      .b, .c, .d, .e {
        stroke-width: 0px;
      }

      .c {
        fill: #e44d26;
      }

      .d {
        fill: #fff;
      }

      .e {
        fill: #ebebeb;
      }
    </style>
  </defs>
  <polygon class="c" points="0 0 421.11 0 382.83 429.53 210.55 477.38 38.29 429.53 0 0"/>
  <polygon class="b" points="210.55 35.2 382.67 35.2 349.77 402.06 210.55 440.98 210.55 35.2"/>
  <polygon class="e" points="337.63 140.67 342.46 87.39 210.56 87.39 78.05 87.39 92.14 247.11 210.56 247.11 275.35 247.11 269.22 315.13 210.56 331.41 210.55 331.41 151.96 315.14 148.18 273.39 94.46 273.39 101.75 356.21 210.55 386.43 210.56 386.43 318.14 356.55 332.78 194.5 210.56 194.5 141.06 194.5 136.2 140.67 210.56 140.67 337.63 140.67"/>
  <g>
    <polygon class="d" points="332.78 194.5 318.14 356.55 210.56 386.43 210.56 331.41 269.22 315.13 275.35 247.11 210.56 247.11 210.56 194.5 332.78 194.5"/>
    <polygon class="d" points="342.46 87.39 337.63 140.67 210.56 140.67 210.56 87.39 342.46 87.39"/>
  </g>
</svg>