<?xml version="1.0" encoding="UTF-8"?>
<svg id="a" data-name="Layer 1" xmlns="http://www.w3.org/2000/svg" viewBox="0 0 308.19 386.51">
  <defs>
    <style>
      .b {
        stroke: #4d628c;
      }

      .b, .c {
        fill: none;
        stroke-linecap: round;
        stroke-miterlimit: 10;
        stroke-width: 22px;
      }

      .d {
        fill: #4d628c;
      }

      .d, .e, .f, .g {
        stroke-width: 0px;
      }

      .e {
        fill: #80bfff;
      }

      .c {
        stroke: #283d66;
      }

      .f {
        fill: #283d66;
      }

      .g {
        fill: #8095ff;
      }
    </style>
  </defs>
  <line class="b" x1="11" y1="147.22" x2="11" y2="239.31"/>
  <g>
    <line class="c" x1="269.09" y1="147.22" x2="269.09" y2="239.31"/>
    <line class="c" x1="242.04" y1="147.22" x2="297.19" y2="147.22"/>
  </g>
  <path class="d" d="M102.22,193.26c0,19.24,15.58,34.9,34.79,35.04v22c-31.34-.14-56.79-25.67-56.79-57.04s25.45-56.9,56.79-57.04v22c-19.21.14-34.79,15.8-34.79,35.04Z"/>
  <g>
    <path class="e" d="M137.01,273.32v22c-22.96-.06-45.47-7.95-63.38-22.26-4.75-3.79-5.52-10.71-1.73-15.46,3.79-4.74,10.71-5.52,15.45-1.73,14.25,11.37,31.41,17.4,49.66,17.45Z"/>
    <path class="e" d="M137.01,91.2v22c-18.37.06-35.61,6.15-49.9,17.64-2.03,1.64-4.47,2.43-6.89,2.43-3.21,0-6.4-1.4-8.57-4.1-3.81-4.73-3.06-11.66,1.67-15.47,17.98-14.46,40.59-22.44,63.69-22.5Z"/>
    <path class="e" d="M137.01,317.54v22c-33.41-.06-64.84-11.07-90.9-31.87-4.75-3.79-5.53-10.71-1.74-15.46,3.79-4.75,10.71-5.53,15.46-1.74,22.12,17.66,48.81,27.01,77.18,27.07Z"/>
    <path class="e" d="M137.01,46.98v22c-28.49.06-55.26,9.48-77.44,27.27-2.03,1.63-4.46,2.42-6.87,2.42-3.22,0-6.42-1.41-8.59-4.12-3.8-4.74-3.04-11.66,1.7-15.46,25.76-20.65,58.13-32.05,91.2-32.11Z"/>
    <path class="e" d="M137.01,364.51v22c-44.15-.05-85.7-14.6-120.15-42.07-4.75-3.79-5.53-10.71-1.74-15.46,3.79-4.75,10.71-5.53,15.46-1.75,30.51,24.34,67.31,37.23,106.43,37.28Z"/>
    <path class="e" d="M137.01,0v22c-39.24.06-76.13,13.02-106.69,37.49-2.03,1.63-4.46,2.42-6.87,2.42-3.23,0-6.42-1.42-8.59-4.13-3.8-4.74-3.03-11.67,1.71-15.46C50.59,15.08,93.35.06,137.01,0Z"/>
  </g>
  <path class="f" d="M194.3,193.26c0,31.45-25.58,57.04-57.04,57.04h-.25v-22h.25c19.32,0,35.04-15.72,35.04-35.04s-15.72-35.04-35.04-35.04h-.25v-22h.25c31.46,0,57.04,25.59,57.04,57.04Z"/>
  <g>
    <path class="g" d="M200.41,273.45c-18.15,14.31-39.99,21.87-63.15,21.87h-.25v-22h.25c18.17,0,35.3-5.93,49.53-17.15,4.77-3.76,11.69-2.94,15.45,1.83s2.94,11.68-1.83,15.45Z"/>
    <path class="g" d="M202.49,128.77c-3.78,4.76-10.7,5.55-15.46,1.77-14.27-11.35-31.49-17.34-49.77-17.34h-.25v-22h.25c23.31,0,45.25,7.65,63.46,22.12,4.76,3.78,5.55,10.7,1.77,15.45Z"/>
    <path class="g" d="M227.95,308.04c-26.05,20.6-57.41,31.5-90.69,31.5h-.25v-22h.25c28.28,0,54.92-9.25,77.04-26.76,4.76-3.76,11.68-2.96,15.45,1.81,3.77,4.76,2.96,11.68-1.8,15.45Z"/>
    <path class="g" d="M230.01,94.18c-3.78,4.75-10.7,5.54-15.45,1.76-22.17-17.64-48.9-26.96-77.3-26.96h-.25v-22h.25c33.42,0,64.89,10.98,90.99,31.74,4.75,3.78,5.54,10.7,1.76,15.46Z"/>
    <path class="g" d="M257.2,344.8c-34.43,27.29-75.91,41.71-119.94,41.71h-.25v-22h.25c39.02,0,75.77-12.78,106.28-36.95,4.76-3.77,11.68-2.98,15.45,1.79,3.78,4.76,2.98,11.68-1.79,15.45Z"/>
    <path class="g" d="M259.26,57.41c-3.78,4.75-10.7,5.54-15.46,1.76-30.56-24.31-67.4-37.17-106.54-37.17h-.25V0h.25c44.17,0,85.75,14.51,120.24,41.95,4.75,3.79,5.54,10.71,1.76,15.46Z"/>
  </g>
</svg>