<?xml version="1.0" encoding="UTF-8"?>
<svg id="Layer_1" data-name="Layer 1" xmlns="http://www.w3.org/2000/svg" viewBox="0 0 306.18 306.18">
  <defs>
    <style>
      .cls-1 {
        fill: #fff;
      }

      .cls-1, .cls-2 {
        stroke-width: 0px;
      }

      .cls-2 {
        fill: #f6df21;
      }
    </style>
  </defs>
  <rect id="Square" class="cls-2" width="306.18" height="306.18"/>
  <path id="J" class="cls-1" d="M173.54,221.04c0,15.29-3.54,26.99-10.63,35.11-7.09,8.12-17.35,12.18-30.77,12.18-6,0-11.55-1.04-16.64-3.11v-24.13c4.41,3.34,9.34,5.02,14.81,5.02,11.73,0,17.6-8.71,17.6-26.12v-67.84h25.64v68.88Z"/>
  <path id="S" class="cls-1" d="M193.28,261.97v-25.48c4.62,3.88,9.63,6.78,15.05,8.72,5.41,1.94,10.88,2.91,16.4,2.91,3.24,0,6.06-.29,8.48-.88,2.42-.58,4.43-1.39,6.05-2.43,1.62-1.04,2.83-2.25,3.62-3.66.8-1.41,1.19-2.93,1.19-4.58,0-2.23-.64-4.22-1.91-5.97-1.27-1.75-3.01-3.37-5.22-4.86-2.2-1.49-4.82-2.92-7.84-4.3-3.03-1.38-6.29-2.79-9.79-4.22-8.92-3.71-15.57-8.25-19.95-13.62-4.38-5.36-6.57-11.84-6.57-19.43,0-5.95,1.19-11.05,3.58-15.33,2.39-4.27,5.64-7.79,9.75-10.55,4.11-2.76,8.88-4.79,14.29-6.09,5.42-1.3,11.15-1.95,17.2-1.95s11.21.36,15.81,1.08c4.59.72,8.83,1.82,12.7,3.3v23.81c-1.91-1.33-4-2.49-6.25-3.5-2.26-1.01-4.58-1.84-6.97-2.51-2.39-.66-4.76-1.15-7.13-1.47-2.36-.32-4.61-.48-6.73-.48-2.92,0-5.57.28-7.96.84-2.39.56-4.41,1.34-6.05,2.35-1.65,1.01-2.92,2.22-3.82,3.62-.9,1.41-1.35,2.99-1.35,4.74,0,1.91.5,3.62,1.51,5.14,1.01,1.51,2.44,2.95,4.3,4.3,1.86,1.35,4.11,2.68,6.77,3.98,2.65,1.3,5.65,2.64,9,4.02,4.56,1.91,8.67,3.94,12.3,6.09,3.64,2.15,6.75,4.58,9.36,7.29,2.6,2.71,4.59,5.8,5.97,9.28,1.38,3.48,2.07,7.52,2.07,12.14,0,6.37-1.21,11.72-3.62,16.04-2.42,4.33-5.69,7.83-9.83,10.51-4.14,2.68-8.96,4.61-14.45,5.77s-11.29,1.75-17.4,1.75-12.22-.53-17.88-1.59c-5.65-1.06-10.55-2.65-14.69-4.78Z"/>
</svg>