<?xml version="1.0" encoding="UTF-8"?>
<svg id="Layer_1" data-name="Layer 1" xmlns="http://www.w3.org/2000/svg" viewBox="0 0 395.27 406.14">
  <defs>
    <style>
      .cls-1 {
        fill: #ef372c;
        stroke-width: 0px;
      }
    </style>
  </defs>
  <path class="cls-1" d="M165.67,213.68s41.71-23.84,61.2-34.98c2.02-1.15,2.78-2.39,2.77-4.76-.1-26.04,0-52.09-.12-78.13-.02-4.25,1.45-6.94,5.2-9.07,24.28-13.83,48.48-27.79,72.63-41.84,3.6-2.1,6.64-2.01,10.21.06,24.15,14.04,48.35,28.01,72.62,41.85,3.64,2.08,5.1,4.71,5.09,8.83-.1,27.47-.11,54.94,0,82.41.02,4.36-1.49,7.04-5.38,9.25-22.8,12.93-45.44,26.15-68.19,39.16-2.3,1.31-3.25,2.7-3.23,5.45.12,25.94,0,51.89.14,77.83.02,4.19-1.47,6.75-5.07,8.82-49.86,28.64-99.67,57.37-149.46,86.13-3.26,1.89-6.09,1.94-9.38.04-49.87-28.83-99.77-57.62-149.72-86.29C1.42,316.4,0,313.86,0,309.88.05,223.91.05,137.94,0,51.97c0-3.89,1.44-6.39,4.85-8.35C29.28,29.66,53.66,15.6,77.99,1.46c3.52-2.04,6.49-1.88,9.93.12,24.24,14.09,48.52,28.11,72.87,42.01,3.56,2.03,4.92,4.64,4.91,8.62-.06,52.4-.04,161.47-.04,161.47ZM12.53,60.59s.05,164.51,0,245.27c0,1.85.54,2.92,2.16,3.85,45.36,26.05,138.46,79.56,138.46,79.56,0,0-.04-48.05.06-70.22.01-2.47-.78-3.82-2.89-5-22.66-12.74-45.23-25.66-67.95-38.3-4.21-2.34-5.76-5.19-5.75-9.95.13-54.92.07-109.85.14-164.77,0-2.46-.78-3.81-2.9-5.02-19.4-11.09-61.33-35.42-61.33-35.42ZM165.7,389.35s92.76-53.49,137.51-79.16c2.21-1.27,3.12-2.6,3.11-5.21-.11-21.86-.23-69.33-.23-69.33,0,0-92.84,52.88-137.66,78.42-1.98,1.13-2.83,2.31-2.82,4.71.11,22.27.11,70.56.11,70.56ZM153.15,60.02s-56.71,33.36-61.15,35.9c-2.24,1.28-3.06,2.66-3.06,5.24.08,50.96.24,156.6.24,156.6,0,0,42.01-24.02,61.42-35.08,1.93-1.1,2.6-2.32,2.6-4.54-.07-51.26-.05-158.12-.05-158.12ZM95.68,268.66s41.52,23.61,60.82,34.67c2.18,1.25,3.72,1.09,5.79-.09,44.8-25.62,137.36-78.53,137.36-78.53,0,0-41.8-24.2-61.02-35.41-2.02-1.18-3.43-1.19-5.47-.02-44.77,25.87-137.48,79.37-137.48,79.37ZM376.2,93.44c-.86-.61-41.94-24.4-62.02-36.11-1.71-1-2.77-.41-4.12.37-19.51,11.27-61.28,35.56-61.28,35.56,0,0,41.53,24.19,62,35.83.92.52,2.74.26,3.77-.32,10.35-5.81,51.15-29.3,61.65-35.33ZM18.86,49.98s41.95,24.21,61.97,35.85c1.74,1.01,2.94.58,4.45-.29,19.6-11.34,61.23-35.56,61.23-35.56,0,0-41.67-24.14-61.35-35.56-1.93-1.12-3.3-.7-5.01.29-16.97,9.81-61.28,35.26-61.28,35.26ZM242.1,104.25s.05,47.55-.06,69.51c-.01,2.49.84,3.79,2.92,4.98,19.39,11.09,61.3,35,61.3,35,0,0-.04-47.43.06-69.19.01-2.55-.73-3.98-3-5.27-19.31-11.02-61.21-35.03-61.21-35.03ZM382.68,104.36s-42.08,23.99-61.91,35.34c-1.77,1.02-2.29,2.2-2.28,4.14.06,22.16.24,69.79.24,69.79,0,0,41.8-23.87,61.28-34.99,2.05-1.17,2.73-2.44,2.72-4.78-.1-22.06-.06-69.5-.06-69.5Z"/>
</svg>