<?xml version="1.0" encoding="UTF-8"?>
<svg id="a" data-name="Ñëîé 1" xmlns="http://www.w3.org/2000/svg" xmlns:xlink="http://www.w3.org/1999/xlink" viewBox="0 0 419.48 419.48">
  <defs>
    <style>
      .c {
        fill: none;
      }

      .c, .d, .e {
        stroke-width: 0px;
      }

      .f {
        clip-path: url(#b);
      }

      .d {
        fill: #fff;
      }

      .e {
        fill: #a33639;
      }
    </style>
    <clipPath id="b">
      <rect class="c" x="0" width="419.48" height="419.48"/>
    </clipPath>
  </defs>
  <g class="f">
    <g>
      <path class="e" d="M219.29,4.7h28.51v41.57c46.06-5.86,94.2-5.44,138.4,10.2,16.64,5.67,34.75,18.64,33.13,38.47.19,73.27.19,146.59,0,219.92,1.67,20.08-16.93,32.95-33.75,38.57-44.25,14.69-91.87,16.45-137.78,9.92v51.34h-29.7C145.5,401.44,72.7,389.33,0,376.55V42.93C73.08,30.16,146.26,17.71,219.29,4.7Z"/>
      <path class="d" d="M247.85,60.76c42.57-5.86,86.9-5.68,128.29,6.96,11.39,4.25,26.65,9.35,29.22,22.93-1.91,11.11-13.49,16.12-22.65,20.12-43.24,14.59-90,15.97-134.86,9.2v-59.21Z"/>
      <path class="d" d="M345.48,134.94c20.97-3.1,42.85-7.63,59.83-21.26-1.04,20.5,1.62,41.24-1.43,61.55-8.53,10.16-22.07,13.78-34.28,17.26-39.81,9.39-81.33,9.63-121.76,4.43v-61.79c32.42,4.11,65.23,4.04,97.64-.19ZM97.34,130.03c11.11-.81,22.17-1.57,33.32-2.43,15.97,53.39,31.13,107.07,46.92,160.51-11.02-.71-22.03-1.52-32.95-2.52-2.93-11.93-5.99-23.84-9.15-35.71-14.63-.08-29.25-.49-43.86-1.24-2.81,11.28-5.67,22.55-8.58,33.8-9.31-.71-18.62-1.38-27.94-2,13.93-50.2,28.42-100.21,42.24-150.41Z"/>
      <path class="e" d="M97.58,222.9c4.82-22.31,11.97-44.1,15.16-66.74,4.29,22.59,10.92,44.62,16.35,66.93-10.54-.05-21.03-.1-31.52-.19Z"/>
      <path class="d" d="M345.77,211.17c20.93-3.1,42.67-7.63,59.54-21.21-.95,20.45,1.48,41.09-1.33,61.4-8.34,10.2-21.88,13.83-34.04,17.31-39.9,9.48-81.57,9.72-122.09,4.57v-61.83c32.51,4.14,65.43,4.06,97.92-.24ZM345.58,287.45c20.97-3.05,42.76-7.63,59.73-21.21-1,20.45,1.58,41.19-1.43,61.5-13.49,14.68-34.89,17.4-53.44,21.17-34.05,5.18-68.69,5.31-102.78.38.33-20.55.19-41.05.19-61.59,32.45,4.14,65.3,4.05,97.73-.24Z"/>
    </g>
  </g>
</svg>