<?xml version="1.0" encoding="UTF-8"?>
<svg id="a" data-name="Ñëîé 1" xmlns="http://www.w3.org/2000/svg" viewBox="0 0 419.49 419.48">
  <defs>
    <style>
      .b {
        fill: #fff;
      }

      .b, .c {
        stroke-width: 0px;
      }

      .c {
        fill: #207245;
      }
    </style>
  </defs>
  <path class="c" d="M219.39,4.87h28.3v38.12c47.7,0,95.39.1,143.08-.15,8.05.33,16.92-.24,23.92,4.57,4.91,7.05,4.34,16.01,4.67,24.11-.23,82.71-.14,165.38-.09,248.04-.24,13.87,1.28,28.02-1.62,41.69-1.9,9.91-13.81,10.15-21.78,10.48-49.36.14-98.77-.1-148.18,0v42.88h-29.59c-72.61-13.2-145.37-25.39-218.07-38.11V43.03C73.17,30.31,146.3,17.78,219.39,4.87Z"/>
  <path class="b" d="M247.69,57.28h157.23v300.17h-157.23v-28.59h38.11v-33.35h-38.11v-19.06h38.11v-33.35h-38.11v-19.06h38.11v-33.35h-38.11v-19.06h38.11v-33.35h-38.11v-19.06h38.11v-33.35h-38.11v-28.59Z"/>
  <path class="c" d="M304.87,85.86h66.7v33.35h-66.7v-33.35Z"/>
  <path class="b" d="M141.16,130.5c10.76-.76,21.58-1.43,32.4-1.95-12.7,26.09-25.52,52.12-38.45,78.09,13.1,26.68,26.49,53.17,39.64,79.85-11.47-.65-22.94-1.39-34.4-2.19-8.1-19.87-17.97-39.07-23.78-59.84-6.48,19.34-15.72,37.59-23.15,56.56-10.44-.15-20.87-.57-31.31-1,12.24-23.97,24.06-48.12,36.68-71.95-10.72-24.54-22.49-48.6-33.54-72.99,10.48-.62,20.96-1.24,31.44-1.81,7.1,18.63,14.86,37.02,20.73,56.13,6.29-20.25,15.68-39.31,23.73-58.89Z"/>
  <path class="c" d="M304.87,138.27h66.7v33.35h-66.7v-33.35ZM304.87,190.68h66.7v33.35h-66.7v-33.35ZM304.87,243.09h66.7v33.35h-66.7v-33.35ZM304.87,295.51h66.7v33.35h-66.7v-33.35Z"/>
</svg>