<?xml version="1.0" encoding="UTF-8"?>
<svg id="a" data-name="Ñëîé 1" xmlns="http://www.w3.org/2000/svg" viewBox="0 0 419.49 419.48">
  <defs>
    <style>
      .b {
        fill: #d24625;
      }

      .b, .c {
        stroke-width: 0px;
      }

      .c {
        fill: #fff;
      }
    </style>
  </defs>
  <path class="b" d="M220.72,4.87h27.01v42.88c50.93.29,101.92-.53,152.8.24,10.96-1.05,19.54,7.48,18.44,18.44.81,89-.19,178.05.48,267.1-.48,9.62.95,20.29-4.58,28.82-6.96,5.05-16.01,4.38-24.16,4.77-47.65-.24-95.29-.14-142.99-.14v47.65h-29.63c-72.61-13.24-145.37-25.35-218.03-38.11C.02,265.35.07,154.19.07,43.08,73.58,30.36,147.1,17.4,220.72,4.87Z"/>
  <path class="c" d="M247.73,62.04h157.23v290.64h-157.23v-38.12h114.35v-19.06h-114.35v-23.82h114.35v-19.06h-114.3c-.05-9.34-.05-18.68-.09-28.01,18.86,5.86,40.35,5.72,57.22-5.63,18.25-10.81,27.78-31.45,29.35-52.03-20.92-.15-41.84-.1-62.7-.1-.05-20.73.23-41.45-.43-62.13-7.81,1.52-15.63,3.14-23.4,4.81v-47.5Z"/>
  <path class="b" d="M281.13,94.77c33.11,1.52,60.93,29.4,62.7,62.42-20.92.24-41.83.14-62.75.14,0-20.87-.05-41.74.05-62.56Z"/>
  <path class="c" d="M76.49,130.75c25.87,1.24,57.23-10.25,78.67,9.15,20.54,24.92,15.11,70.75-15.34,85.67-10.81,5.52-23.2,4.76-34.97,4.38-.05,18.63-.09,37.26-.05,55.89-9.45-.82-18.9-1.61-28.35-2.38-.42-50.89-.52-101.82.05-152.71Z"/>
  <path class="b" d="M104.79,156.53c9.39-.43,21.01-2.14,27.35,6.67,5.43,9.34,5.15,21.63.62,31.26-5.43,9.82-17.72,8.86-27.21,10.01-1-15.96-.9-31.93-.76-47.93Z"/>
</svg>