<?xml version="1.0" encoding="UTF-8"?>
<svg id="a" data-name="Ñëîé 1" xmlns="http://www.w3.org/2000/svg" viewBox="0 0 419.49 419.48">
  <defs>
    <style>
      .b {
        fill: #2a5699;
      }

      .b, .c {
        stroke-width: 0px;
      }

      .c {
        fill: #fff;
      }
    </style>
  </defs>
  <path class="b" d="M219.23,4.87h28.49v38.12c50.98.29,101.92-.53,152.85.29,10.86-1.1,19.39,7.34,18.39,18.2.81,93.86-.19,187.77.48,281.63-.48,9.62.95,20.3-4.62,28.82-6.96,4.96-15.97,4.34-24.06,4.72-47.7-.23-95.34-.13-143.04-.13v38.11h-29.78c-72.51-13.24-145.23-25.39-217.88-38.11C.02,265.35.07,154.19.07,43.08,73.1,30.31,146.19,17.88,219.23,4.87Z"/>
  <path class="c" d="M247.73,57.28h157.23v304.93h-157.23v-38.12h123.88v-19.06h-123.88v-23.82h123.88v-19.06h-123.88v-23.82h123.88v-19.06h-123.88v-23.82h123.88v-19.06h-123.88v-23.82h123.88v-19.06h-123.88v-23.82h123.88v-19.06h-123.88v-33.35ZM98.5,141.46c9.05-.52,18.1-.9,27.16-1.38,6.33,32.16,12.82,64.27,19.67,96.29,5.39-33.07,11.34-66.04,17.1-99.05,9.53-.33,19.06-.86,28.54-1.43-10.77,46.17-20.2,92.72-31.97,138.6-7.96,4.15-19.87-.19-29.31.48-6.34-31.54-13.72-62.89-19.39-94.58-5.57,30.78-12.82,61.27-19.2,91.87-9.15-.48-18.34-1.05-27.54-1.67-7.91-41.93-17.2-83.57-24.58-125.59,8.15-.38,16.34-.72,24.49-1,4.9,30.35,10.48,60.56,14.77,90.95,6.73-31.16,13.59-62.32,20.26-93.48Z"/>
</svg>