<?xml version="1.0" encoding="UTF-8"?>
<svg id="Layer_1" data-name="Layer 1" xmlns="http://www.w3.org/2000/svg" viewBox="0 0 409.43 461.12">
  <defs>
    <style>
      .cls-1 {
        fill: #539e43;
        stroke-width: 0px;
      }
    </style>
  </defs>
  <path class="cls-1" d="M0,132.59c1-12.98,6.84-23.97,18.36-30.44,22.94-13.36,45.93-26.6,68.9-39.9,22.27-12.93,44.56-25.83,66.86-38.72,13.85-7.2,26.48-17.29,41.3-22.36,21.49-5.78,38.71,11.41,56.63,20.39,12.18,7.06,24.35,14.14,36.53,21.2,36.09,21.56,73.56,41.13,108.86,63.86,6.2,5.68,10.08,12.63,11.38,20.95,1.31,66.88.11,133.89.44,200.82-.02,14.11-6.58,24.65-18.76,31.7-14.35,8.32-28.71,16.64-43.08,24.95-41.23,23.86-82.45,47.75-123.69,71.61-13.5,7.34-30.05,5.32-42.35-3.48-16.78-9.89-33.52-19.88-50.25-29.85-11.09-6-2.16-6.95,4.55-9.48,5.69-1.91,10.95-4.72,16.14-7.67,1.97-1.14,4.11-2.78,6.3-1.24,5.78,3.43,11.54,6.89,17.31,10.35,8.54,5.11,17.07,10.22,25.61,15.33,2.23,1.33,4.38,1.35,6.68,0,8.15-4.8,16.35-9.52,24.54-14.26,21.12-12.22,42.23-24.46,63.34-36.7,22.3-12.88,44.59-25.77,66.86-38.7,5.15-4.28,16.32-5.87,16.34-13.68-.08-64.28,0-128.57-.03-192.85.1-2.54-.25-5.25-2.78-6.52-26.68-15.36-53.35-30.72-80.03-46.09-21.74-12.57-43.5-25.12-65.27-37.64-6.22-2.53-24.13-16.74-28.86-13.69-40.76,23.25-81.3,46.88-122,70.25-10.25,5.9-20.49,11.81-30.74,17.71-4.91,3.96-18.97,7.91-19.16,14.3,0,64.89,0,129.77-.03,194.66,0,2.97,1.18,4.89,3.75,6.35,15.1,8.46,29.88,17.5,44.99,25.91,16.09,10.19,41,4.24,41.07-16.99.01-63.61,0-127.21,0-190.82-.55-3.69,1.66-7.22,5.51-7.03,6.65.13,13.3.16,19.95,0,3.83-.09,6.1,2.3,6.04,6-.13,64.06.03,128.12-.06,192.17,0,8.03-1.01,15.95-3.87,23.54-6.93,21.03-28.99,30.31-49.88,28.95-18.14-.47-34.14-9.98-49.4-18.8C29.26,364.67.39,356.57,0,329.84c0-65.75,0-131.5,0-197.25Z"/>
  <path class="cls-1" d="M319.15,203.33c-5.01-.83-14.01,2.69-15.6-4.09-2.18-11.46-8.72-22.12-20.1-26.16-13.29-5.12-27.76-4.31-41.72-4.17-7.32.28-14.57,1.37-21.42,4.23-9.15,3.18-14.89,12.31-13.54,21.92,1.11,17.2,40.53,16.57,53.8,20.01,25.16,4.38,55.73,4.65,73.31,25.9,9.18,13,9.34,30.57,4.73,45.33-6.43,20.11-25.93,31.89-45.57,36.49-41.44,8.37-111.01,7.89-123.65-42.72-.57-5.64-5.61-19.89,3.11-20.73,7.4-.02,14.8-.02,22.2,0,2.51,0,3.94,1.36,4.33,3.82,1.36,11.97,7.08,24.04,19.02,28.37,14.73,5.75,30.96,5.63,46.54,5.38,19.12-.08,47.37-5.56,43.53-30.62-2.5-23.51-78.13-19.04-98.52-28.29-16.91-4.58-33.01-16.49-35.28-34.92-2.54-15.54.94-31.98,12.25-43.44,11.6-11.92,28.07-17.27,44.18-19.51,26.08-2.65,54.63-2.17,77.94,11.16,15.9,9.25,24.5,27.05,25.79,44.98,1.6,9.84-9.27,6.53-15.32,7.05Z"/>
</svg>