<?xml version="1.0" encoding="UTF-8"?>
<svg id="a" data-name="Layer 1" xmlns="http://www.w3.org/2000/svg" viewBox="0 0 403.01 374.39">
  <defs>
    <style>
      .b {
        fill: red;
      }

      .b, .c, .d, .e {
        stroke-width: 0px;
      }

      .c {
        fill: none;
      }

      .d {
        fill: lime;
      }

      .e {
        fill: blue;
      }
    </style>
  </defs>
  <path class="d" d="M189.31,279.72c0,52.28-42.38,94.65-94.66,94.65S0,332,0,279.72s42.38-94.65,94.65-94.65c17.25,0,33.42,4.61,47.34,12.67l-28.69,49.68c-5.48-3.17-11.85-4.99-18.65-4.99-20.59,0-37.29,16.7-37.29,37.29s16.7,37.29,37.29,37.29,37.29-16.69,37.29-37.29h57.37Z"/>
  <path class="b" d="M296.15,94.66c0,35.03-19.03,65.62-47.32,81.98l-28.68-49.68c11.14-6.45,18.64-18.5,18.64-32.3,0-20.6-16.7-37.29-37.29-37.29s-37.29,16.69-37.29,37.29c0,13.8,7.49,25.85,18.64,32.3l-28.68,49.68c-28.29-16.36-47.32-46.95-47.32-81.98C106.85,42.38,149.22,0,201.5,0s94.65,42.38,94.65,94.66Z"/>
  <g>
    <path class="e" d="M355.67,361.69c-45.28,26.14-103.16,10.62-129.29-34.64-26.14-45.28-10.64-103.16,34.64-129.3l28.68,49.68c-17.84,10.3-23.94,33.11-13.64,50.95s33.1,23.95,50.94,13.65,23.94-33.11,13.65-50.94c-3.39-5.88-8.16-10.49-13.65-13.66l28.68-49.69c13.94,8.03,26.02,19.72,34.64,34.66,26.14,45.27,10.62,103.16-34.64,129.29Z"/>
    <circle class="c" cx="308.35" cy="279.72" r="94.65"/>
  </g>
  <polygon class="c" points="201.5 94.66 94.65 279.72 308.35 279.72 201.5 94.66"/>
</svg>