<?xml version="1.0" encoding="UTF-8"?>
<svg id="a" xmlns="http://www.w3.org/2000/svg" viewBox="0 0 476.99 465.95">
  <defs>
    <style>
      .b {
        fill: #30a8ff;
      }

      .b, .c {
        stroke-width: 0px;
      }

      .c {
        fill: #001e36;
      }
    </style>
  </defs>
  <rect class="c" width="476.99" height="465.95" rx="85.66" ry="85.66"/>
  <path class="b" d="M187.08,119.37h-77.75v207.15h43.64v-64.7h34.11c19.66,0,37.47-7.98,50.36-20.86,12.89-12.89,20.86-30.7,20.86-50.36,0-39.34-31.89-71.22-71.22-71.22h0ZM205.33,214.36c-6.08,6.08-14.49,9.84-23.76,9.84h-28.59v-67.21h28.59c18.56,0,33.6,15.05,33.6,33.6,0,9.28-3.76,17.68-9.84,23.76Z"/>
  <path class="b" d="M394.48,280.07c0,13.75-6.41,26.87-16.53,36.04-11.4,10.34-27.24,14.74-42.3,15.89-1.8.14-3.61.22-5.42.26-16.73.34-34.32-3.21-49.53-10.24-.16-.07-.33-.15-.48-.22.02-12.19.05-24.39.07-36.59,0,.66,12.1,3.59,13.59,4.09,13.8,4.53,30.27,7.91,44.82,6.06,3.07-.39,6.23-1.16,8.61-3.14,8.97-7.45-.13-16.71-7.43-20.26-7.92-3.86-16.46-6.29-24.56-9.77-7.67-3.3-15-7.59-21.11-13.28-20.22-18.84-19.44-50.49,1.17-68.79,11.67-10.36,27.43-13.66,42.65-14.32,15.74-.7,31.64,2.12,46.22,8.1.56.23,1.15.5,1.46,1.01.26.44.27.98.27,1.5.01,12.46.03,24.9.04,37.36-2.37-2.02-5.62-2.87-8.44-4.1-3.06-1.34-6.18-2.51-9.34-3.53-11.23-3.6-25.82-6.92-37.35-2.97-4.24,1.45-7.4,4.47-7.4,9.16,0,7.26,7.11,10.75,12.93,13.39,7.21,3.29,14.88,5.28,22.07,8.61,18.64,8.65,35.98,23.48,35.98,45.73h0Z"/>
</svg>