<?xml version="1.0" encoding="UTF-8"?>
<svg id="Layer_1" data-name="Layer 1" xmlns="http://www.w3.org/2000/svg" viewBox="0 0 450.94 450.94">
  <defs>
    <style>
      .cls-1 {
        fill: #fff;
      }

      .cls-1, .cls-2 {
        stroke-width: 0px;
      }

      .cls-2 {
        fill: #4f5c94;
      }
    </style>
  </defs>
  <rect class="cls-2" width="450.94" height="450.94"/>
  <g>
    <path class="cls-1" d="M86.87,303.75h-25.73c2.41-12.54,4.77-24.85,7.14-37.16,5.22-27.1,16.77-86.12,16.77-86.12,0,0,41.14.15,60.09,1.05,13.41.64,24.5,6.47,30.09,19.52,4.33,10.1,3.37,20.61.16,30.79-8.61,27.22-29.2,39.03-55.53,39.05-7.33,0-26.01.01-26.01.01,0,0-5.1,23.07-6.98,32.85ZM106.82,200.1l-9.19,52.08s15.23.64,21.2.22c10.98-.78,21.33-3.48,26.88-14.26,3.92-7.63,5.79-15.95,5.04-24.64-.5-5.77-3.16-10.54-8.94-11.95-6.87-1.69-34.99-1.44-34.99-1.44Z"/>
    <path class="cls-1" d="M173.99,270.82c1.85-9.88,3.51-19,5.27-28.09,5.53-28.55,17.61-95.53,17.61-95.53h26.7l-6.21,32.96s37.61-1.99,47,1.51c5.91,2.2,16.97,9.04,13.64,27.89-3.39,19.15-7.31,38.21-10.95,57.32-.56,2.91-1.8,4.17-5.03,3.99-5.65-.31-11.33-.2-16.98,0-3.67.13-4.67-1.26-3.97-4.77,3.18-15.81,6.22-31.64,9.31-47.47.35-1.8.82-3.58,1.05-5.39,1.05-8.22-2.09-12.69-10.27-13.23-8.45-.56-27.51-.36-27.51-.36l-13.52,71.25s-18.81-.06-26.16-.06Z"/>
    <path class="cls-1" d="M298.53,303.75h-25.73c2.41-12.54,4.77-24.85,7.14-37.16,5.22-27.1,16.77-86.12,16.77-86.12,0,0,41.14.15,60.09,1.05,13.41.64,24.5,6.47,30.09,19.52,4.33,10.1,3.37,20.61.16,30.79-8.61,27.22-29.2,39.03-55.53,39.05-7.33,0-26.01.01-26.01.01,0,0-5.1,23.07-6.98,32.85ZM318.48,200.1l-9.19,52.08s15.23.64,21.2.22c10.98-.78,21.33-3.48,26.88-14.26,3.92-7.63,5.79-15.95,5.04-24.64-.5-5.77-3.16-10.54-8.94-11.95-6.87-1.69-34.99-1.44-34.99-1.44Z"/>
  </g>
</svg>