<?xml version="1.0" encoding="UTF-8"?>
<svg id="a" data-name="Layer 1" xmlns="http://www.w3.org/2000/svg" viewBox="0 0 220.35 203.92">
  <defs>
    <style>
      .b {
        font-family: Microsoft-Yi-Baiti, 'Microsoft Yi Baiti';
        font-size: 41.71px;
        font-style: italic;
        letter-spacing: -.03em;
      }

      .c, .d {
        fill: #417ba2;
      }

      .c, .e, .f {
        stroke-width: 0px;
      }

      .f {
        fill: #fff;
      }

      .g {
        fill: #231f20;
      }
    </style>
  </defs>
  <text class="b" transform="translate(0 196.97) scale(1.39 1)"><tspan class="g" x="0" y="0">Postgre</tspan><tspan class="d" x="98.3" y="0">SQL</tspan></text>
  <g>
    <path class="f" d="M30.8,27.61c2.46-5.01,8.15-34.72,61.42-18.04,12.28-4.83,22.58-6.54,34.41-4.12,24.01-7.72,50.29-.64,61.93,17.6,9.78,15.32-5.93,56.64-19.56,78.56,13.72-1.23,20.36-4.24,21.51,1.63,2.8,14.24-15.65,19.23-32.92,18.91-6.52,31.88,1.81,42.04-33.57,48.9-13.2,2.56-21.19-25.1-18.25-44.01-14.72,5.14-24.48,2.46-31.29-4.89-4.46,2.84-9.16,4.2-14.02,3.91-19.07-1.14-36.06-85.4-29.66-98.44Z"/>
    <path class="e" d="M125.43,173.59c-1.39-.2-2.81-.29-4.18-.6-6.17-1.41-10.28-5.29-12.78-10.98-2.31-5.26-3.74-10.76-4.07-16.51-.3-5.07-.52-10.15-.78-15.23-.01-.28-.04-.56-.05-.76-2.03.55-4,1.27-6.04,1.61-6.47,1.08-12.8.55-18.76-2.33-1.67-.81-3.12-2.08-4.67-3.14.03-.08.06-.16.09-.23-.36.26-.72.52-1.08.78-5.93,4.25-12.81,4.13-18.61-.31-3.64-2.78-6.29-6.38-8.58-10.27-4.1-6.97-6.97-14.48-9.49-22.12-4.16-12.64-7.31-25.54-9.45-38.68-1.46-8.94-1.33-17.86,1.14-26.62,3.81-13.48,12.61-21.77,26.31-24.77,6.62-1.44,13.3-1.31,19.97-.43,5.97.79,11.81,2.19,17.53,4.06.3.1.74.04,1.01-.12,7.48-4.23,15.58-5.5,24.03-4.96,3.12.2,6.23.64,9.35.94.38.04.78-.03,1.15-.13,7.26-2.04,14.65-3,22.19-2.73,10.19.36,19.72,2.94,28.27,8.67,4.38,2.93,8.16,6.51,11.39,10.67,2.4,3.09,3.42,6.7,3.88,10.51.81,6.75.04,13.42-1.28,20.04-3.45,17.33-10.05,33.45-18.85,48.71-.17.29-.33.58-.6,1.06,1.18-.1,2.23-.13,3.26-.28,2.43-.36,4.84-.84,7.27-1.17,3.1-.42,6.06-.07,8.51,2.1,1.72,1.52,2.64,3.41,2.74,5.78.13,3.08-1.08,5.58-3.12,7.7-4.7,4.89-10.44,8.03-17.03,9.56-4.64,1.08-9.35,1.6-14.12,1.23-.19-.01-.38,0-.71,0-.1,1.65-.22,3.24-.29,4.84-.3,7.04-.92,14.03-2.74,20.86-1.17,4.37-2.86,8.5-5.6,12.15-3.58,4.79-8.43,7.66-14.11,9.25-3.18.89-6.39,1.66-9.72,1.78-.14,0-.27.06-.41.09h-1.02ZM164.62,102.84c.03-.11.03-.17.05-.21.16-.26.33-.52.5-.79,10.25-16.12,17.74-33.4,21.7-52.14,1.33-6.29,2.11-12.65,1.45-19.1-.31-3.03-.99-5.98-2.91-8.45-2.98-3.85-6.49-7.14-10.56-9.82-6.7-4.41-14.11-6.73-22.06-7.44-8.89-.79-17.58.25-26.08,2.95-.28.09-.61.12-.9.08-3.27-.45-6.52-1.11-9.8-1.34-8-.54-15.57.91-22.42,5.34-.25.16-.7.2-.99.1-6.27-2.23-12.69-3.82-19.3-4.64-5.98-.75-11.95-.83-17.87.44-11.28,2.43-18.83,9.05-22.38,20.09-2.08,6.46-2.58,13.13-2.06,19.85.31,4.04.99,8.07,1.74,12.06,2.18,11.63,5.12,23.07,8.97,34.27,2.24,6.52,4.78,12.91,8.3,18.87,1.93,3.27,4.12,6.35,7.17,8.72,4.39,3.41,9.28,3.4,13.57-.13,1.17-.96,2.19-2.11,3.21-3.25,4.17-4.68,8.32-9.39,12.45-14.1.41-.46.71-.51,1.27-.23,2.13,1.08,4.39,1.78,6.77,2.05.71.08,1.41.16,2.27.26-.9,1.14-1.72,2.11-2.48,3.12-1.09,1.45-2.5,2.45-4.25,2.91-1.99.52-3.99,1-5.99,1.49-1.95.48-3.91.96-5.52,2.25-2.08,1.66-2.31,4.22-.47,6.15.75.78,1.68,1.43,2.63,1.96,2.64,1.47,5.57,1.97,8.53,2.26,5.96.57,11.52-.54,16.45-4.13.58-.42,1.14-.88,1.83-1.43,0,.45,0,.75,0,1.05-.03,8.73.08,17.46.87,26.16.39,4.26,1.24,8.35,3.42,12.11,3,5.17,7.3,8.27,13.34,8.78,3.96.34,7.75-.5,11.49-1.65,4.09-1.26,7.78-3.2,10.53-6.6,2.42-3,3.85-6.48,4.42-10.23,1.36-8.96,2.52-17.94,3.75-26.92.21-1.55.37-3.11.55-4.66.9.18,1.7.37,2.51.49,3.93.56,7.83.24,11.73-.34,5.84-.87,11.04-3.17,15.58-6.93,1.4-1.16,2.71-2.41,3.41-4.14.95-2.35-.16-4.6-2.64-5.01-1.28-.21-2.66-.14-3.94.09-4.15.75-8.29,1.48-12.53,1.24-1.86-.11-3.7-.36-5.31-1.41Z"/>
    <g>
      <path class="c" d="M159.39,45.09c-.85-.05-1.58-.09-2.3-.12-3.87-.2-7.68.05-11.25,1.74-3.97,1.88-6.14,5.09-6.73,9.4-.57,4.13.26,8.08,1.48,11.98,2.08,6.66,5.3,12.8,8.64,18.89,1.16,2.13,2.28,4.28,3.34,6.46,1.31,2.68,3.03,5.09,4.89,7.4.32.39.61.8.97,1.28-.35.15-.62.27-.9.37-3.64,1.28-5.53,3.96-6.03,7.67-.24,1.78-.2,3.6-.36,5.39-.27,2.83-.58,5.66-.92,8.49-.41,3.47-.79,6.94-1.3,10.4-.79,5.43-1.53,10.88-2.57,16.26-1.12,5.83-4.65,9.7-10.36,11.54-3.12,1.01-6.28,1.85-9.59,1.8-4.2-.06-7.49-1.82-9.79-5.38-1.85-2.88-2.84-6.02-3.21-9.43-1.26-11.65-1.09-23.34-.92-35.03.04-2.8-.23-5.38-1.77-7.75-1.59-2.44-3.88-3.81-6.73-4.23-.63-.09-1.28-.01-2.04-.01.22-.75.4-1.57.7-2.33,1.46-3.69,2.92-7.39,4.44-11.06,2.48-5.96,3.44-12.16,3.16-18.6-.22-4.98-.9-9.88-2.08-14.7-1.49-6.09-6.03-9.66-12.29-9.77-5.36-.09-10.26,1.59-14.97,3.95-.2.1-.4.21-.6.3-.05.02-.11,0-.28,0,.23-1.78.42-3.56.7-5.32.94-5.82,2.51-11.45,5.24-16.7,2.89-5.56,6.82-10.16,12.44-13.15,3.71-1.97,7.7-3,11.89-3.27,9.33-.6,18.12,1.26,26.27,5.89,7.74,4.4,13.72,10.64,18.27,18.23,1.59,2.65,2.8,5.52,4.18,8.3.16.31.22.67.37,1.12Z"/>
      <path class="c" d="M88.49,15.88c-.95,1.11-1.91,2.14-2.78,3.24-4.61,5.86-7.28,12.61-8.97,19.79-1.42,6.04-2.1,12.16-1.87,18.37.08,2.23.26,4.45.32,6.68.13,5.2-.41,10.36-.91,15.53-.62,6.38,1.03,12.26,4.9,17.43,1.04,1.39,2.28,2.63,3.48,4-1.52,1.67-3.09,3.36-4.62,5.09-2.88,3.29-5.71,6.64-8.61,9.91-.8.9-1.73,1.71-2.72,2.4-1.73,1.2-3.57,1.21-5.41.14-1.97-1.15-3.45-2.82-4.77-4.62-3.21-4.38-5.47-9.27-7.48-14.28-3.72-9.25-6.56-18.78-8.78-28.47-1.46-6.33-2.79-12.71-3.83-19.12-1.23-7.62-.95-15.25,1.4-22.68,2.95-9.32,9.38-14.76,18.87-16.69,4.54-.93,9.12-.98,13.73-.56,5.98.55,11.79,1.84,17.51,3.61.18.06.36.14.57.22Z"/>
      <path class="c" d="M161.75,97.96c-.68-.42-.73-.82-.37-1.45,3-5.29,3.83-11.02,3.29-16.99-.38-4.18-.93-8.35-1.14-12.54-.12-2.4.2-4.84.52-7.24.54-4,1.25-7.98,1.06-12.02-.06-1.38-.39-2.81-.89-4.1-5.48-14.36-14.66-25.47-28.62-32.34-.18-.09-.35-.18-.52-.28-.04-.02-.06-.08-.18-.24,1.98-.29,3.88-.67,5.79-.83,2.56-.21,5.13-.4,7.69-.34,9.56.22,18.44,2.62,26.13,8.59,2.58,2,4.86,4.3,6.88,6.87,1.31,1.66,1.73,3.66,1.96,5.68.66,5.95-.04,11.83-1.25,17.64-3.64,17.52-10.54,33.73-19.9,48.93-.13.21-.28.42-.45.67Z"/>
      <path class="c" d="M105.31,72.18c.09,5.66-1.23,10.98-3.45,16.16-1.71,4.01-3.14,8.14-4.66,12.23-.18.49-.4.65-.91.62-4.93-.26-8.93-2.42-12.14-6.07-3.72-4.24-5.26-9.27-4.93-14.86.18-3.09.68-6.16.82-9.26.15-3.24.08-6.49.06-9.73-.01-1.41-.12-2.82-.24-4.22-.05-.59.17-.95.64-1.26,3.57-2.36,7.45-3.96,11.67-4.73,1.76-.32,3.53-.44,5.3-.11,3.27.61,5.2,2.69,5.83,5.83.72,3.61,1.22,7.27,1.73,10.91.21,1.47.19,2.98.27,4.47ZM95.87,53.18c-.86.21-1.77.32-2.58.65-1.03.42-1.31,1.23-.86,2.27,1.21,2.78,5.08,4.81,8.19,1.66,1.21-1.23,1.04-2.45-.43-3.34-1.31-.79-2.76-1.09-4.32-1.23Z"/>
      <path class="c" d="M157.81,92.43c-.14-.15-.21-.2-.25-.27-3-5.81-6.07-11.59-8.97-17.45-2.03-4.12-3.64-8.43-4.39-13.01-.33-2.04-.44-4.1.11-6.13.85-3.11,3.19-4.51,6.12-5.15,3.01-.66,6.05-.51,9.09-.2.58.06.51.44.47.79-.2,1.93-.33,3.88-.64,5.79-.84,5.18-1.16,10.34-.48,15.58.48,3.68.76,7.41.86,11.12.08,3.05-.58,6.04-1.93,8.93ZM152.35,51.91c-1.14.33-2.51.58-3.75,1.13-1.53.68-1.6,1.83-.37,2.99,2.34,2.21,6.2,1.32,7.35-1.69.32-.84.13-1.48-.7-1.81-.72-.28-1.51-.38-2.53-.63Z"/>
      <path class="c" d="M82.5,119.27c1.18-.3,2.37-.58,3.55-.9,2.22-.6,4.47-1.15,6.66-1.86,1.95-.63,3.53-1.86,4.84-3.44,1.01-1.22,2-2.45,3-3.67.23-.28.49-.55.72-.83,1.62-2,3.22-1.57,4.84.11,1.06,1.11,1.49,2.52,1.29,4.06-.05.4-.24.82-.47,1.15-3.5,4.83-8.17,7.47-14.19,7.63-2.93.07-5.8-.25-8.57-1.22-.57-.2-1.11-.5-1.66-.76,0-.09,0-.19,0-.28Z"/>
      <path class="c" d="M182.64,108.35c-1.79,1.1-3.53,2.27-5.37,3.28-3.03,1.67-6.38,2.38-9.78,2.71-2.54.25-5.11.21-7.67.18-.96-.01-1.94-.32-2.87-.61-.26-.08-.59-.55-.58-.83.03-1.03.12-2.08.31-3.09.26-1.38,1.16-2.25,2.48-2.76,1.25-.48,2.32-.64,3.61.2,2.1,1.36,4.59,1.65,7.05,1.77,4.13.2,8.21-.3,12.25-1.13.13-.03.27-.02.41-.04.06.1.11.2.17.31Z"/>
    </g>
  </g>
</svg>