<?xml version="1.0" encoding="UTF-8"?>
<svg id="a" data-name="Layer 1" xmlns="http://www.w3.org/2000/svg" viewBox="0 0 361.28 434.81">
  <defs>
    <style>
      .b {
        fill: #ee4c2c;
        stroke-width: 0px;
      }
    </style>
  </defs>
  <path class="b" d="M308.28,126.35c32.74,32.7,52.99,77.89,52.99,127.82,0,99.76-80.87,180.64-180.64,180.64S0,353.93,0,254.17c0-54.66,22.04-96.89,60.6-134.68C93.81,86.93,130.76,49.06,180.64,0v63.83c-16.8,16.8-66.26,66.04-96.89,96.34-26.47,26.18-37.79,60.32-37.79,94,0,74.38,60.3,134.68,134.68,134.68s134.68-60.3,134.68-134.68c0-37.2-15.08-70.88-39.47-95.26l32.43-32.56Z"/>
  <circle class="b" cx="244.19" cy="95.32" r="23.49"/>
</svg>