<?xml version="1.0" encoding="UTF-8"?>
<svg id="a" data-name="Layer 1" xmlns="http://www.w3.org/2000/svg" viewBox="0 0 396.24 386.36">
  <defs>
    <style>
      .b {
        fill: #3feeec;
      }

      .b, .c {
        stroke: #0084a6;
        stroke-width: 9px;
      }

      .b, .c, .d {
        stroke-miterlimit: 10;
      }

      .c, .d {
        fill: none;
      }

      .d {
        stroke: #f9f9f9;
        stroke-width: 15px;
      }
    </style>
  </defs>
  <g>
    <path class="d" d="M78.35,344.21h103.48l3.13,34.64h18.09c8.58,0,17.04-.59,25.31-1.71l3.17-35.11c9.67-1.65,19.03-4.23,27.98-7.63l19.8,28.12c13.36-6.04,25.88-13.6,37.33-22.47l-14.25-30.72c7.38-6.13,14.16-12.96,20.25-20.38l30.17,13.99c8.62-11.73,15.88-24.51,21.58-38.11l-26.94-18.98c3.3-8.86,5.8-18.11,7.39-27.67l32.58-2.94c.87-7.24,1.3-14.6,1.3-22.06s-.44-14.82-1.3-22.06l-32.58-2.94c-1.59-9.56-4.09-18.82-7.38-27.68l26.93-18.97c-5.7-13.61-12.96-26.39-21.58-38.11l-30.16,13.99c-6.09-7.42-12.88-14.25-20.26-20.39l14.25-30.71c-11.46-8.87-23.98-16.44-37.34-22.47l-19.79,28.12c-8.95-3.4-18.31-5.98-27.98-7.63l-3.17-35.11c-8.28-1.12-16.73-1.71-25.31-1.71h-18.09l-3.13,34.64h-103.48"/>
    <circle class="d" cx="206.43" cy="193.18" r="17.99"/>
    <line class="d" x1="78.35" y1="193.18" x2="188.44" y2="193.18"/>
    <path class="d" d="M28.43,270.06h105.72l28.35-19.48c12.18,9.33,27.4,14.88,43.93,14.88,39.92,0,72.28-32.36,72.28-72.28s-32.36-72.28-72.28-72.28c-16.39,0-31.5,5.45-43.62,14.64l-28.66-19.86H28.43"/>
    <g>
      <circle class="d" cx="78.35" cy="42.14" r="10.47"/>
      <circle class="d" cx="78.35" cy="344.03" r="10.47"/>
      <circle class="d" cx="17.97" cy="115.68" r="10.47"/>
      <circle class="d" cx="67.88" cy="193.18" r="10.47"/>
      <circle class="d" cx="17.97" cy="270.06" r="10.47"/>
    </g>
  </g>
  <g>
    <path class="c" d="M78.35,344.21h103.48l3.13,34.64h18.09c8.58,0,17.04-.59,25.31-1.71l3.17-35.11c9.67-1.65,19.03-4.23,27.98-7.63l19.8,28.12c13.36-6.04,25.88-13.6,37.33-22.47l-14.25-30.72c7.38-6.13,14.16-12.96,20.25-20.38l30.17,13.99c8.62-11.73,15.88-24.51,21.58-38.11l-26.94-18.98c3.3-8.86,5.8-18.11,7.39-27.67l32.58-2.94c.87-7.24,1.3-14.6,1.3-22.06s-.44-14.82-1.3-22.06l-32.58-2.94c-1.59-9.56-4.09-18.82-7.38-27.68l26.93-18.97c-5.7-13.61-12.96-26.39-21.58-38.11l-30.16,13.99c-6.09-7.42-12.88-14.25-20.26-20.39l14.25-30.71c-11.46-8.87-23.98-16.44-37.34-22.47l-19.79,28.12c-8.95-3.4-18.31-5.98-27.98-7.63l-3.17-35.11c-8.28-1.12-16.73-1.71-25.31-1.71h-18.09l-3.13,34.64h-103.48"/>
    <circle class="c" cx="206.43" cy="193.18" r="17.99"/>
    <line class="c" x1="78.35" y1="193.18" x2="188.44" y2="193.18"/>
    <path class="c" d="M28.43,270.06h105.72l28.35-19.48c12.18,9.33,27.4,14.88,43.93,14.88,39.92,0,72.28-32.36,72.28-72.28s-32.36-72.28-72.28-72.28c-16.39,0-31.5,5.45-43.62,14.64l-28.66-19.86H28.43"/>
    <g>
      <circle class="b" cx="78.35" cy="42.14" r="10.47"/>
      <circle class="b" cx="78.35" cy="344.03" r="10.47"/>
      <circle class="b" cx="17.97" cy="115.68" r="10.47"/>
      <circle class="b" cx="67.88" cy="193.18" r="10.47"/>
      <circle class="b" cx="17.97" cy="270.06" r="10.47"/>
    </g>
  </g>
</svg>