<?xml version="1.0" encoding="UTF-8"?>
<svg id="a" data-name="Layer 1" xmlns="http://www.w3.org/2000/svg" viewBox="0 0 305.11 292.21">
  <defs>
    <style>
      .b {
        fill: #15436b;
      }

      .b, .c, .d {
        stroke-width: 0px;
      }

      .c {
        fill: #f2c315;
      }

      .d {
        fill: #fff;
      }
    </style>
  </defs>
  <path class="d" d="M304.06,127.14l-61.58,4.87c-.83-2.71-1.75-5.39-2.76-8.02l49.78-40.64-59.01,21.59c-1.64-2.76-3.38-5.45-5.23-8.06L305.11,0l-93.1,81.1c-2.4-2.42-4.89-4.74-7.48-6.96l21.6-58.37-38.12,46.41c-3.73-2.26-7.58-4.31-11.55-6.17L181.19,0l-22.04,49.42c-5.21-1.54-10.56-2.76-16.03-3.61l-7.81-27.79-5.8,26.44c-1.85-.08-3.71-.13-5.58-.13C55.49,44.34,0,99.83,0,168.27s55.49,123.93,123.93,123.93c53.53,0,99.13-33.93,116.46-81.46l60.8,5.19-55.03-27.12c.38-2.26.69-4.55.95-6.85l41.94-9.85-41.44-11.74c-.15-2.36-.36-4.7-.64-7.03l57.09-26.2Z"/>
  <g>
    <path class="b" d="M153.75,232c-19.14-13.17-37.42-27.62-54.23-43.71-1.73-1.67-2.5-2.82-.62-5.02,6.55-7.66,12.99-15.43,19.31-23.29,1.65-2.05,2.72-1.96,4.52-.31,16.87,15.33,34.92,29.19,53.23,42.72,1.76,1.3,2.76,2.2.95,4.44-6.6,8.17-13.43,16.13-20.67,23.73-.63.66-1.14,1.59-2.49,1.44Z"/>
    <path class="b" d="M128.55,257.65c-18.67-11.56-36.38-24.45-52.78-39.09-2.17-1.95-2.51-3.29-.57-5.65,5.71-6.93,11.24-14,16.72-21.11,1.48-1.93,2.49-1.81,4.12-.22,16.13,15.7,33.83,29.48,52.29,42.31,2.31,1.61,2.34,2.66.34,4.55-6.87,6.27-13.03,13.19-20.13,19.21Z"/>
    <path class="b" d="M48.12,126.19c1.35-.15,1.46.88,1.71,1.55,7.61,20.11,20.43,36.76,34.9,52.28,1.56,1.67,1.37,2.86.04,4.52-5.78,7.22-11.5,14.49-17.14,21.82-1.4,1.82-2.29,2.19-4.05.3-15.06-16.16-27.9-33.74-35.7-54.65-.97-2.61-.88-4.38,1.11-6.54,6.14-6.62,12.31-13.36,19.13-19.28Z"/>
    <path class="b" d="M112.92,150.75c-6.69,8.81-14.2,16.9-21.18,25.48-1.2,1.44-2.06,2.24-3.78.38-13.99-15.22-26.77-31.22-34.42-50.75-.97-2.47-1.03-4.13,1.21-6,6.9-5.76,13.62-11.73,20.37-17.66,1.52-1.33,2.57-1.79,3.5.62,7.22,18.97,20.64,33.48,34.3,47.94Z"/>
    <path class="b" d="M11.48,175.02c1.89-7.7,6.07-14.55,10.63-20.94,1.28-1.75,2.13-1.84,2.93.4,7.66,21.44,20.58,39.47,36.23,55.71,1.34,1.39,1.75,2.44.53,4.17-3.78,5.34-7.19,10.91-9.83,16.91-.7,1.6-1.44,2.21-2.93.77-16.57-16.18-30.97-34.39-37.55-57.02Z"/>
    <path class="b" d="M192.87,261.46c-1.03.12-1.44-.45-1.87-.98-7.18-8.87-17.19-14.18-26.27-20.63-3.02-2.15-3.35-3.28-.61-5.95,6.84-6.66,13.19-13.8,19.1-21.3,1.76-2.24,3.04-2.83,5.56-.84,8.67,6.83,17.77,13.16,24.81,21.82,4.17,5.13,4.06,5.17-.38,9.91-6.22,6.57-13.05,12.64-20.34,17.96Z"/>
    <path class="b" d="M69.97,219.24c16.93,14.34,33.96,27.7,52.94,39.18,2.26,1.41,2.88,2.36.58,4.4-3.55,3.17-6.91,6.56-10.17,10.03-1.46,1.56-2.62,1.81-4.56.81-17.24-8.89-33.44-19.34-48.42-31.66-1.18-.97-2.34-1.7-1.43-3.65,2.82-6.08,6.42-11.67,10.24-17.14.39-.56.54-1.29.82-1.98Z"/>
    <path class="b" d="M163.46,279.37c-.55-.24-1.23-.4-1.74-.78-7.67-5.66-16.05-10.2-24.12-15.22-2.59-1.61-1.79-2.58-.07-4.13,6.05-5.47,12.01-11.03,17.98-16.58,1.19-1.11,2.08-2.37,4.08-.96,8.31,5.89,17.08,11.15,24.74,17.93,5.04,4.47,4.94,4.64-.47,8.32-6.5,4.38-13.2,8.22-20.39,11.41Z"/>
    <path class="b" d="M84.48,58.55c-7.94,9.03-11.25,20.23-9.17,31.98.31,1.77.31,3.32-1.43,4.7-7.13,5.66-14.19,11.43-21.15,17.31-2.2,1.86-2.82,1.19-3.18-1.22-2.19-14.18-1.41-32.81,12.16-41.31,6.29-3.79,12.43-7.81,19.07-10.98.94-.45,1.88-1.17,3.7-.49Z"/>
    <path class="b" d="M10.18,182.04c.42.48.67.64.75.87,7.29,20.74,20.58,37.3,36.29,52.19,1.06,1,2.49,1.95,1.88,3.76-2.39,7.16-1.34,13.92,2.92,20.63-21.26-8.01-48.33-58.39-41.84-77.45Z"/>
    <path class="b" d="M56.4,244.44c15.4,12.11,31.27,22.43,48.8,30.97,2.61,1.3,2.89,2.02,1.95,5.26-1.78,6.15-5.12,4.52-8.99,3.5-12.32-3.25-24.01-8-34.63-15.08-8.86-5.9-11.26-14.29-7.14-24.65Z"/>
    <path class="b" d="M24.23,139.84c-1.61-12.73-4.01-24.05,4.07-34.7,5.68-7.49,11.05-15.18,17.76-21.81.85-.84,1.52-1.96,2.89-2.12.1.25.33.54.26.71-4.46,10.94-4.99,22.21-2.77,33.69.27,1.39,0,2.32-1.03,3.23-7.13,6.31-13.94,12.96-21.17,21Z"/>
    <path class="b" d="M159.8,280.72c-5.06,2.66-9.51,4.19-14.14,5.14-10.11,2.06-20.23,2.29-30.39.13-3.31-.7-3.94-2.01-1.71-4.56,5.23-5.95,11.41-10.89,17.27-16.17.79-.71,1.55-.97,2.55-.37,8.59,5.17,17.19,10.31,26.41,15.84Z"/>
    <path class="b" d="M7.48,163.41c1.05-14.35,4.68-27.96,11.82-40.66.57,6.46.99,12.87,2.14,19.19.21,1.17-.45,2.07-1.1,2.96-5.42,7.42-9.22,15.65-12.03,24.36-2.13-1.69-1-3.84-.83-5.86Z"/>
    <path class="b" d="M7.48,163.41c.35,1.94-.25,4.02.83,5.86.05,1.35-.3,2.59-1.39,4.4-.31-3.89-.39-7.08.57-10.26Z"/>
  </g>
  <path class="c" d="M239.07,150.91c.8,4.04,1.36,8.16,1.68,12.36l37.28,8.79-37.16,5.84c-.25,4.31-.77,8.56-1.54,12.71l48.25,21.58-51.94-7.24c-.41,4.74-3.79,11.79-5.78,15.17-6.88-13.21-33.66-30.8-51.28-44.48-21.29-16.53-56.1-36.98-77.38-71.71,30.33-13.65,57.63-17.54,91.41,1.53-16.17-18.89-42.83-22.6-63.56-20.8-9.95.86-24.61,4.63-33.55,7.78-1.09-9.03-1.23-17.42,2.55-19.36,6.89-3.53,13.16-4.58,21.14-5.82,3.67-.58,7.41-.97,11.2-1.15l4.94-36.65,8.66,36.85c4.63.36,9.17,1.03,13.6,1.97l18.96-50.25-5.03,54.23c3.94,1.43,7.77,3.08,11.48,4.96l32.88-43.7-19.93,51.43c3.4,2.37,6.65,4.94,9.74,7.69l79.43-72.2-69.19,82.68c2.7,3.15,5.2,6.47,7.5,9.93l51.96-22.02-44.6,34.97c1.65,3.43,3.11,6.96,4.37,10.59l57.28-6.44-53.37,20.76Z"/>
</svg>