<?xml version="1.0" encoding="UTF-8"?>
<svg id="a" data-name="Layer 1" xmlns="http://www.w3.org/2000/svg" xmlns:xlink="http://www.w3.org/1999/xlink" viewBox="0 0 429.01 480.31">
  <defs>
    <style>
      .c {
        fill: #003b57;
      }

      .c, .d, .e {
        stroke-width: 0px;
      }

      .d {
        fill: url(#b);
      }

      .e {
        fill: #0f80cc;
      }
    </style>
    <linearGradient id="b" x1="190.73" y1="32.63" x2="190.73" y2="415.86" gradientUnits="userSpaceOnUse">
      <stop offset="0" stop-color="#97d9f6"/>
      <stop offset=".59" stop-color="#2a92d4"/>
      <stop offset=".62" stop-color="#238ed2"/>
      <stop offset=".7" stop-color="#1987cf"/>
      <stop offset=".79" stop-color="#1685ce"/>
      <stop offset=".85" stop-color="#1181cc"/>
      <stop offset="1" stop-color="#0f80cc"/>
    </linearGradient>
  </defs>
  <path class="e" d="M378.05,23.51l-87.5,114.84-49.78,175.41-3.83,64.34,1.85,48.25H36.02c-19.89,0-36.02-16.12-36.02-36.02V58.16C0,38.27,16.13,22.14,36.02,22.14h332.17c3.42,0,6.73.48,9.86,1.37Z"/>
  <path class="d" d="M370.96,32.82l-80.41,105.53-49.78,175.41-3.83,64.34,1.45,37.76H36.41c-14.32,0-25.92-11.6-25.92-25.91V58.54c0-14.31,11.6-25.91,25.92-25.91h331.4c1.07,0,2.12.06,3.15.19Z"/>
  <path class="c" d="M245.45,480.31c-8.85-18.38-11.74-63.83-11.74-108.43,0-13.16-9.18-57.36-18.4-77.98-.4-8.63,1.59-17.88,4.85-28.28,7.19,12.98,13.86,25.35,18.49,37.49-4.03-18.9-9.22-35.03-15.94-47.51,2.67-8.15,5.29-16.12,7.85-23.94,8.14,14.16,14.26,26.61,17.36,36.51-2.61-14.84-7.08-29.82-14.3-45,3.84-31.28,23.4-83.81,57.45-142.87,15.32-26.58,68.24-99.8,110.13-75.4,33.02,19.23,34.89,65.7,14.81,122.04-5.51,15.45-13.19,32.05-21.07,47.76-12.03,23.98-23.74,43.01-32.35,56.1-24.03,7.97-54.27,22.51-71.59,33.99,12.26-6.93,34.38-13.25,62.43-19.21-13.75,18.86-29.54,40.53-46.34,63.57-29.98,11.83-49.69,36.05-55.94,57.57,8.31-49.84,29.36-121.66,59.32-186,13.12-28.19,47.66-105.87,89.19-146.72-55.45,43.29-108.6,146.04-129.02,207.36-30.54,91.68-39.37,186.59-22.21,237.22l-2.98,1.71Z"/>
</svg>