<?xml version="1.0" encoding="UTF-8"?>
<svg id="Layer_1" data-name="Layer 1" xmlns="http://www.w3.org/2000/svg" viewBox="0 0 431.17 431.12">
  <defs>
    <style>
      .cls-1, .cls-2 {
        stroke-width: 0px;
      }

      .cls-2 {
        fill: #fff;
      }
    </style>
  </defs>
  <circle class="cls-2" cx="215.59" cy="215.56" r="197.42"/>
  <path class="cls-1" d="M214.04,0c1.12,0,2.25,0,3.37,0,2.92.25,5.84.58,8.77.73,58.46,3.07,108.26,25.76,147.5,68.87,51.25,56.3,67.97,122.73,51.21,196.93-9.94,44-32.87,80.88-66.72,110.66-40.78,35.87-88.68,53.67-142.88,53.92-32.3.15-63.38-6.58-92.35-21.06C57.46,377.33,17.54,324.85,3.67,252.94,1.43,241.29,1.17,229.26,0,217.41c0-1.12,0-2.25,0-3.37.53-7.12.83-14.26,1.63-21.34,6.01-53.61,28.8-98.95,68.37-135.49C105.1,24.79,146.75,6.26,194.38,1.46,200.92.8,207.49.48,214.04,0ZM220.79,171.63c-1.7-1.55-3.15-2.8-4.52-4.12-12.05-11.53-24.78-22.07-41.03-27.21-21.41-6.77-40.08-1.35-55.58,14.13-15.96,15.94-15.48,42.22.4,60.98,6.07,7.17,12.91,13.72,18.64,21.14,7.04,9.13,4.2,21.95-5.52,28.25-8.69,5.63-24.18,4.66-32.17-2.01-4.35-3.63-4.8-6.75-2.17-11.8,1.74-3.33,3.57-6.76,4.44-10.37,2.3-9.51-3.88-18.62-13.4-20.45-8.79-1.69-16.11,4.26-17.6,14.4-1.27,8.58,1.46,16.12,6.58,22.81,7.9,10.32,19,15.49,31.24,18.55,18.06,4.52,35.15,2.51,50.55-8.54,15.61-11.2,21.84-29.97,15.24-46.79-2.12-5.4-5.31-10.57-8.87-15.18-5.83-7.54-12.37-14.52-18.6-21.75-4.24-4.92-6.46-10.55-5.34-17.07,2.01-11.76,12.96-19.03,25.39-17.17,11.18,1.66,20.81,6.56,29.29,13.84,6.18,5.3,12.3,10.67,18.23,16.25.97.91,1.41,3.16,1.1,4.57-4.01,17.92-8.3,35.77-12.31,53.68-5.49,24.48-10.27,49.14-16.39,73.45-3.89,15.47-10.77,29.86-22.7,41.15-5.51,5.21-11.73,9.15-19.43,10.19-3.45.46-7.21.56-8.74-3.2-1.45-3.57,1.61-5.91,4.11-7.46,10.34-6.42,7.33-19.37.29-25.13-6.49-5.31-15.59-5.78-23.17-1.06-8.51,5.29-12.7,14.67-10.46,23.79,2.89,11.75,11.31,17.88,22.38,20.37,18.44,4.15,35.12-1.36,50.3-11.39,24-15.84,39.5-38.69,50.92-64.55,9.82-22.24,14.83-45.85,19.34-69.57,1.77-9.33,3.38-18.7,5.02-27.79,5.83,0,11.14.06,16.44-.01,13.89-.2,27.1-3,38.52-11.38,7.67-5.63,13.05-12.81,12.45-23-.41-6.94-5.38-12.48-11.51-13.11-7.32-.75-14.49,3.6-15.45,10.57-.46,3.33,1.28,7.25,2.84,10.51,2.91,6.09,2.48,9.74-3.68,12.35-5.86,2.48-12.18,4.35-18.46,5.19-6.24.84-12.69.06-19.59-.01,1.87-9.97,3.41-18.8,5.19-27.57,3.48-17.2,7.11-34.38,15.4-50.09,3.79-7.17,8.65-13.43,15.8-17.66,6.19-3.67,12.88-4.75,19.88-3.81,5.92.8,7.74,4.7,4.99,9.96-1.17,2.23-2.49,4.43-3.29,6.8-2.82,8.3,1.58,16.58,9.89,18.9,9.55,2.68,17.88-1.46,21.46-10.64,3.22-8.26,1.74-17.56-5.15-23.06-4.79-3.81-10.62-7.16-16.51-8.59-22.77-5.55-42.29,2.15-59.54,16.76-16.65,14.11-27.71,32.25-36.49,51.92-3.01,6.74-5.59,13.67-8.58,21.03Z"/>
</svg>