<?xml version="1.0" encoding="UTF-8"?>
<svg id="Layer_1" data-name="Layer 1" xmlns="http://www.w3.org/2000/svg" viewBox="0 0 471.37 283.91">
  <defs>
    <style>
      .cls-1 {
        fill: #38bdf8;
        stroke-width: 0px;
      }
    </style>
  </defs>
  <path class="cls-1" d="M0,236.23s27.64-40.66,68.74-37.09c31.41,2.73,38.59,13.99,69.79,45.19,19.83,19.83,44.7,39.57,98.85,39.57,101.49,0,116-94.11,116-94.11,0,0-28.18,40.15-68.38,37.49s-53.11-30.7-81.19-55.47-69.2-33.98-108.55-28.39C14.3,154.92,0,236.23,0,236.23Z"/>
  <path class="cls-1" d="M117.98,94.27s27.64-40.66,68.74-37.09c31.41,2.73,38.59,13.99,69.79,45.19,19.83,19.83,44.7,39.57,98.85,39.57,101.49,0,116-94.11,116-94.11,0,0-28.18,40.15-68.38,37.49s-53.11-30.7-81.19-55.47S252.59-4.11,213.24,1.47c-80.95,11.49-95.26,92.8-95.26,92.8Z"/>
</svg>