<?xml version="1.0" encoding="UTF-8"?>
<svg id="a" data-name="Layer 1" xmlns="http://www.w3.org/2000/svg" viewBox="0 0 425 455.81">
  <defs>
    <style>
      .b {
        fill: #e55b2d;
      }

      .b, .c, .d {
        stroke-width: 0px;
      }

      .c {
        fill: #f8bf3c;
      }

      .d {
        fill: #ed8e24;
      }
    </style>
  </defs>
  <polygon class="c" points="0 139.89 243.82 0 425 105 364.33 140.23 242.8 70.15 59.99 176.49 0 139.89"/>
  <polygon class="b" points="0 210.7 60.5 245.43 59.99 176.49 0 139.89 0 210.7"/>
  <polygon class="d" points="182.03 176.49 60.5 245.43 59.99 176.49 242.8 70.15 242.8 210.19 182.54 245.43 182.03 176.49"/>
  <polygon class="b" points="364.07 210.45 242.8 140.3 242.8 70.15 364.33 140.23 364.07 210.45"/>
  <polygon class="d" points="425 175.21 425 105 364.33 140.23 364.07 210.45 425 175.21"/>
  <polygon class="b" points="121.6 421.43 121.6 210.45 182.03 176.49 182.54 245.43 242.8 280.15 242.8 350.62 182.2 315.55 182.2 455.81 121.6 421.43"/>
  <polygon class="c" points="303.56 245.43 242.8 210.19 182.54 245.43 242.8 280.15 303.56 245.43"/>
  <polygon class="d" points="303.56 316.15 242.8 350.62 242.8 280.15 303.56 245.43 303.56 316.15"/>
  <polygon class="d" points="242.8 420.74 182.2 455.81 182.2 315.55 242.8 350.62 242.8 420.74"/>
</svg>