<?xml version="1.0" encoding="UTF-8"?>
<svg id="Layer_1" data-name="Layer 1" xmlns="http://www.w3.org/2000/svg" viewBox="0 0 498.97 469.16">
  <defs>
    <style>
      .cls-1 {
        fill: #04aa6d;
        opacity: .85;
        stroke-width: 0px;
      }
    </style>
  </defs>
  <path class="cls-1" d="M498.43,87.48c-.65-3.1-.91-6.35-2.01-9.28-5.28-14.08-16.21-21.42-30.32-24.79-1.15-.27-2.3-.54-3.75-.88.79-1.01,1.26-1.68,1.8-2.3,9.8-11.34,19.62-22.65,29.36-34.03.73-.85,1.19-2.18,1.25-3.31.16-3.32.06-6.66.06-9.99,0-2.88-.01-2.89-2.88-2.89-19.98,0-39.96,0-59.94,0-5.27,0-10.55.03-15.82-.02-1.36-.01-2.01.35-1.99,1.88.07,5.55.05,11.1,0,16.65-.01,1.28.48,1.69,1.72,1.68,15.74-.11,31.49-.19,47.23-.27.68,0,1.37.11,2.41.19-.55.71-.79,1.04-1.05,1.34-10.54,12.15-21.08,24.31-31.65,36.43-.86.99-.92,1.81-.36,2.97,1.3,2.68,2.61,5.37,3.61,8.17.7,1.94,1.82,2.44,3.74,2.36,3.32-.13,6.66-.12,9.99.03,5.03.22,9.87,1.33,14.37,3.64,6.91,3.54,10.74,9.2,10.68,16.98-.06,7.83-3.92,13.65-10.9,17.1-9.79,4.84-19.62,3.71-29.3-.51-5.25-2.29-9.88-5.56-14.12-9.57-.41.53-.76.95-1.06,1.4-3.22,4.86-6.36,9.76-9.67,14.55-1.1,1.59-1,2.51.47,3.78,15.62,13.41,33.66,18.6,53.74,14.42,18.04-3.75,29.51-15.09,33.73-33.28.57-2.47.8-5.03,1.19-7.55v-2.5c-.18-.8-.37-1.6-.54-2.41Z"/>
  <path class="cls-1" d="M31.83,100.03c40.19,71.57,80.37,143.14,120.59,214.7.41.72,1.16,1.54,1.89,1.69.43.09,1.29-.93,1.67-1.61,34.84-62,69.65-124.02,104.46-186.04.42-.75.89-1.47,1.63-2.68,35.86,63.81,71.46,127.16,107.17,190.72.45-.72.79-1.22,1.09-1.74,16.73-29.8,33.44-59.61,50.23-89.37,1.11-1.97.95-3.38-.12-5.27-14.97-26.49-29.87-53.03-44.78-79.56-17.93-31.91-35.86-63.81-53.77-95.73-.73-1.3-1.44-2.11-3.15-2.11-37.81.05-75.63.04-113.44.02-1.42,0-2.27.44-2.97,1.72-4.43,8.01-8.93,15.98-13.41,23.95-11,19.59-21.99,39.17-33,58.75-.48.85-1.07,1.63-1.76,2.67-.61-.99-1.03-1.61-1.4-2.27-15.45-27.5-30.9-54.99-46.3-82.52-.93-1.66-1.94-2.32-3.89-2.32-33.37.06-66.75.04-100.12.05-.73,0-1.46.07-2.46.11.42.84.67,1.39.97,1.91,10.29,18.32,20.58,36.63,30.87,54.94Z"/>
  <path class="cls-1" d="M213.16,428.43c-.04-3.22-.47-6.5-1.2-9.64-2.53-10.93-9.1-18.02-20.47-19.55-10.3-1.39-19.26,1.19-25.21,10.57-.09.14-.33.19-.8.45-.05-.97-.12-1.75-.12-2.54,0-13.87,0-27.74,0-41.62,0-1.18.07-2.19-1.66-2.16-4.37.08-8.74.05-13.11.01-1.17,0-1.62.44-1.58,1.6.05,1.94.01,3.88.01,5.83,0,31.14.02,62.29-.04,93.43,0,2.02.56,2.64,2.57,2.56,3.74-.15,7.49-.14,11.23,0,1.97.08,2.61-.48,2.59-2.53-.09-11.24-.14-22.47,0-33.71.07-5.93,2.2-11.07,7.53-14.22,9.17-5.41,20.29-3.05,23.34,8.13.72,2.63.83,5.48.86,8.23.09,10.47.09,20.95,0,31.42-.02,2.14.65,2.75,2.73,2.66,3.67-.16,7.36-.16,11.03,0,2.02.09,2.41-.67,2.4-2.51-.07-12.14.04-24.28-.1-36.41Z"/>
  <path class="cls-1" d="M261.71,399.31c-20.95,2.76-33.55,21.51-29.56,41.65,3.4,17.13,17.1,28.04,34.73,28.2,1.92-.18,3.86-.27,5.77-.56,26.73-4.11,36.77-32.07,25.26-52.47-6.97-12.36-21.15-18.8-36.2-16.81ZM266.85,454.13c-10.93-.12-19.08-8.73-19.08-20.16,0-11.48,8.13-19.97,19.14-19.97,8.44-.54,19.27,6.18,19.41,20.02.12,11.3-8.66,20.22-19.46,20.1Z"/>
  <path class="cls-1" d="M353.01,398.9c-19.73-.02-35.87,14.94-35.45,34.96-.47,20.66,16.36,35.17,35.23,35.23,19.04.06,35.72-14.26,35.79-35,.06-20.65-16.29-35.16-35.57-35.18ZM372.17,434.08c0,9.97-5.78,17.63-15.24,19.57-12.35,2.53-22.26-6.27-23.03-17.64-.38-5.61.72-10.75,4.33-15.17,5.14-6.28,13.62-8.59,21.24-5.84,8.08,2.91,13.14,10.95,12.69,19.08Z"/>
  <path class="cls-1" d="M39.88,429.83c-3.55-1.16-7.21-1.96-10.78-3.03-2.44-.73-4.96-1.38-7.19-2.56-3.46-1.83-4.17-5.73-1.83-8.88,2.45-3.3,6.02-3.85,9.72-3.3,3.41.51,6.03,2.31,7.18,5.83.2.6.94,1.45,1.45,1.46,4.23.12,8.46.05,12.69.08,1.13,0,1.47-.52,1.36-1.55-.59-5.65-2.91-10.33-7.55-13.77-9.48-7.03-25.35-6.88-34.75.28-11.18,8.51-9.64,24.63,1.79,30.81,2.96,1.6,6.19,2.75,9.41,3.78,4.08,1.3,8.3,2.17,12.4,3.4,2.63.78,4.57,2.5,4.75,5.43.17,2.88-1.21,5.24-3.75,6.45-2.07.99-4.42,1.73-6.7,1.9-5.07.38-10.54-1.75-11.97-7.44-.3-1.18-.87-1.54-2.04-1.49-1.87.09-3.75.02-5.62.02-2.01,0-4.03.05-6.03-.02-1.3-.04-1.76.48-1.57,1.74.71,4.57,2.49,8.62,5.77,11.96,10.66,10.83,32.11,10.86,42.79.04,5.87-5.95,6.97-15.39,2.53-22.42-2.84-4.5-7.15-7.1-12.07-8.7Z"/>
  <path class="cls-1" d="M483.86,430.65c-4.18-1.61-8.62-2.52-12.91-3.87-2.56-.8-5.23-1.51-7.52-2.83-2.99-1.72-3.5-5.48-1.59-8.36,3.44-5.18,13.64-5.06,16.12.6,1.42,3.25,3.24,3.48,5.96,3.25.9-.08,1.8-.01,2.7-.01,1.94,0,3.89-.06,5.83.02,1.43.06,1.98-.41,1.89-1.92-.33-5.47-2.74-9.81-7.02-13.13-9.38-7.28-25.4-7.31-34.89-.15-9.46,7.14-9.76,18.47-4.24,25.94,3.42,4.62,8.45,6.84,13.79,8.39,4.58,1.33,9.23,2.4,13.8,3.79,2.48.75,4.47,2.2,4.68,5.19.23,3.14-1.09,5.52-3.81,6.78-2.08.97-4.44,1.69-6.72,1.82-5.07.29-10.43-1.77-11.83-7.63-.3-1.26-.97-1.29-1.93-1.29-3.75.01-7.5.11-11.24-.04-2.01-.08-2.22.9-1.96,2.42,1,5.81,3.91,10.45,8.67,13.92,9.56,6.97,24.58,7.45,35.03,1.07,7.34-4.47,10.9-10.92,9.59-19.58-1.11-7.31-5.82-11.84-12.42-14.38Z"/>
  <path class="cls-1" d="M119.68,419.12c.49.45.98.89,1.51,1.38,3.77-3,7.39-5.89,11.12-8.85-8.2-10.93-24.02-15.9-39.44-10.65-15.46,5.26-24.62,18.8-23.72,35.15.89,16.26,11.95,28.62,28.69,32.16,14.02,2.97,27.84-2.5,34.37-12.02-3.18-2.53-6.42-5.02-9.54-7.64-1.13-.95-1.8-.98-2.91.09-3.93,3.82-8.86,5.41-14.21,5.37-13.6-.11-22.76-12.13-19.52-25.29,3.94-16,23.54-18.91,33.65-9.7Z"/>
  <path class="cls-1" d="M423.89,421.15c0-18.16,0-36.33,0-54.49q0-2.68-2.77-2.69c-3.47,0-6.93,0-10.4,0-2.87,0-2.88,0-2.88,2.81,0,16.29,0,32.59,0,48.88s0,32.59,0,48.88c0,2.79,0,2.79,2.7,2.8,3.61,0,7.22-.11,10.81.04,1.99.08,2.59-.52,2.58-2.55-.08-14.56-.04-29.12-.04-43.68Z"/>
</svg>